<?xml version="1.0" encoding="utf-8"?>
<svg xmlns="http://www.w3.org/2000/svg" width="130px" height="73px" viewBox="0 0 121.687 41.273" version="1.1" xmlns:bx="https://boxy-svg.com" preserveAspectRatio="none"><defs><bx:export><bx:file format="svg"/><bx:file format="svg" path="Untitled 2.svg"/></bx:export></defs><g id="surface1" transform="matrix(1, 0, 0, 1, -3.78325, -15.960457)"><path style=" stroke:none;fill-rule:nonzero;fill:rgb(9.411765%,10.980392%,15.294118%);fill-opacity:1;" d="M 37.191406 17.417969 C 37.769531 17.957031 38.226562 18.621094 38.566406 19.335938 C 38.578125 19.363281 38.59375 19.390625 38.605469 19.421875 C 38.617188 19.445312 38.628906 19.472656 38.644531 19.5 C 38.652344 19.523438 38.664062 19.546875 38.675781 19.570312 C 38.699219 19.636719 38.699219 19.636719 38.699219 19.738281 C 38.796875 19.742188 38.796875 19.742188 38.902344 19.703125 C 38.996094 19.589844 39.058594 19.46875 39.101562 19.332031 C 39.125 19.332031 39.148438 19.332031 39.171875 19.332031 C 39.171875 19.296875 39.171875 19.265625 39.171875 19.230469 C 39.191406 19.230469 39.214844 19.230469 39.238281 19.230469 C 39.238281 19.195312 39.238281 19.164062 39.238281 19.128906 C 39.257812 19.128906 39.28125 19.128906 39.304688 19.128906 C 39.308594 19.109375 39.308594 19.09375 39.3125 19.074219 C 39.347656 18.964844 39.40625 18.882812 39.472656 18.789062 C 39.496094 18.789062 39.515625 18.789062 39.539062 18.789062 C 39.539062 18.757812 39.539062 18.722656 39.539062 18.6875 C 39.5625 18.6875 39.585938 18.6875 39.605469 18.6875 C 39.617188 18.671875 39.625 18.652344 39.632812 18.632812 C 39.78125 18.351562 40.03125 18.109375 40.246094 17.878906 C 40.273438 17.851562 40.273438 17.851562 40.296875 17.820312 C 40.605469 17.492188 40.9375 17.167969 41.320312 16.933594 C 41.34375 16.933594 41.363281 16.933594 41.386719 16.933594 C 41.386719 16.910156 41.386719 16.886719 41.386719 16.863281 C 42.25 16.367188 43.171875 16.015625 44.175781 15.984375 C 44.214844 15.984375 44.257812 15.984375 44.300781 15.980469 C 45.53125 15.960938 46.808594 16.308594 47.769531 17.101562 C 47.828125 17.15625 47.882812 17.210938 47.9375 17.269531 C 48.003906 17.332031 48.074219 17.394531 48.140625 17.457031 C 48.425781 17.714844 48.695312 17.972656 48.878906 18.316406 C 48.902344 18.339844 48.921875 18.363281 48.945312 18.386719 C 49.339844 18.933594 49.625 19.578125 49.851562 20.210938 C 49.867188 20.25 49.882812 20.292969 49.898438 20.335938 C 49.957031 20.507812 50 20.667969 50.019531 20.851562 C 50.03125 20.882812 50.039062 20.914062 50.050781 20.945312 C 50.109375 21.152344 50.144531 21.363281 50.1875 21.570312 C 50.195312 21.605469 50.195312 21.605469 50.199219 21.640625 C 50.363281 22.496094 50.429688 23.355469 50.429688 24.226562 C 50.429688 24.28125 50.429688 24.335938 50.429688 24.390625 C 50.429688 24.535156 50.429688 24.683594 50.429688 24.832031 C 50.429688 24.992188 50.429688 25.152344 50.429688 25.3125 C 50.433594 25.695312 50.433594 26.078125 50.433594 26.464844 C 50.433594 26.574219 50.433594 26.683594 50.433594 26.789062 C 50.433594 27.464844 50.433594 28.144531 50.4375 28.820312 C 50.4375 28.976562 50.4375 29.132812 50.4375 29.289062 C 50.4375 29.324219 50.4375 29.363281 50.4375 29.40625 C 50.4375 30.035156 50.4375 30.664062 50.4375 31.292969 C 50.441406 31.941406 50.441406 32.589844 50.441406 33.234375 C 50.441406 33.597656 50.441406 33.960938 50.441406 34.324219 C 50.445312 34.632812 50.445312 34.941406 50.445312 35.25 C 50.445312 35.410156 50.445312 35.566406 50.445312 35.722656 C 50.445312 35.867188 50.445312 36.011719 50.445312 36.15625 C 50.445312 36.207031 50.445312 36.261719 50.445312 36.3125 C 50.449219 36.605469 50.4375 36.863281 50.257812 37.109375 C 50.089844 37.269531 49.933594 37.316406 49.707031 37.316406 C 49.671875 37.316406 49.636719 37.316406 49.601562 37.316406 C 49.558594 37.316406 49.519531 37.316406 49.480469 37.316406 C 49.4375 37.316406 49.398438 37.316406 49.355469 37.316406 C 49.242188 37.316406 49.125 37.316406 49.011719 37.316406 C 48.941406 37.316406 48.871094 37.316406 48.796875 37.316406 C 48.574219 37.320312 48.351562 37.320312 48.128906 37.320312 C 47.871094 37.320312 47.613281 37.320312 47.359375 37.320312 C 47.160156 37.320312 46.960938 37.320312 46.761719 37.320312 C 46.640625 37.320312 46.523438 37.320312 46.402344 37.324219 C 46.269531 37.324219 46.136719 37.324219 46.007812 37.324219 C 45.949219 37.324219 45.949219 37.324219 45.886719 37.324219 C 45.683594 37.324219 45.53125 37.308594 45.351562 37.210938 C 45.351562 37.1875 45.351562 37.164062 45.351562 37.140625 C 45.332031 37.136719 45.3125 37.132812 45.289062 37.125 C 45.175781 37.046875 45.148438 36.9375 45.117188 36.804688 C 45.101562 36.632812 45.101562 36.464844 45.105469 36.292969 C 45.105469 36.242188 45.101562 36.1875 45.101562 36.136719 C 45.101562 35.992188 45.101562 35.851562 45.101562 35.707031 C 45.105469 35.550781 45.101562 35.398438 45.101562 35.242188 C 45.101562 34.976562 45.101562 34.707031 45.101562 34.4375 C 45.101562 34.050781 45.101562 33.664062 45.101562 33.273438 C 45.101562 32.644531 45.101562 32.011719 45.101562 31.382812 C 45.101562 31.34375 45.101562 31.304688 45.101562 31.265625 C 45.101562 31 45.101562 30.730469 45.101562 30.464844 C 45.097656 30.15625 45.097656 29.851562 45.097656 29.546875 C 45.097656 29.492188 45.097656 29.492188 45.097656 29.433594 C 45.097656 28.804688 45.097656 28.179688 45.097656 27.550781 C 45.097656 27.164062 45.097656 26.777344 45.097656 26.390625 C 45.097656 26.125 45.097656 25.859375 45.097656 25.59375 C 45.097656 25.441406 45.097656 25.285156 45.097656 25.132812 C 45.109375 23.710938 45.109375 23.710938 44.679688 22.375 C 44.664062 22.34375 44.648438 22.3125 44.632812 22.28125 C 44.558594 22.144531 44.484375 22.007812 44.398438 21.882812 C 44.34375 21.796875 44.34375 21.796875 44.34375 21.730469 C 44.320312 21.730469 44.300781 21.730469 44.277344 21.730469 C 44.226562 21.679688 44.226562 21.679688 44.175781 21.613281 C 44.105469 21.523438 44.105469 21.523438 44.007812 21.460938 C 44.007812 21.4375 44.007812 21.417969 44.007812 21.394531 C 43.984375 21.382812 43.960938 21.375 43.941406 21.367188 C 43.796875 21.308594 43.660156 21.230469 43.523438 21.15625 C 43.171875 20.972656 42.800781 20.9375 42.410156 20.941406 C 42.371094 20.941406 42.335938 20.941406 42.296875 20.941406 C 41.734375 20.941406 41.238281 21.136719 40.78125 21.460938 C 40.761719 21.476562 40.738281 21.492188 40.71875 21.507812 C 40.066406 22.019531 39.824219 22.878906 39.675781 23.652344 C 39.667969 23.679688 39.664062 23.703125 39.65625 23.730469 C 39.523438 24.414062 39.53125 25.105469 39.53125 25.796875 C 39.53125 25.945312 39.53125 26.09375 39.53125 26.238281 C 39.53125 26.492188 39.53125 26.746094 39.53125 27 C 39.53125 27.402344 39.53125 27.804688 39.53125 28.203125 C 39.53125 28.34375 39.53125 28.480469 39.53125 28.617188 C 39.53125 28.652344 39.53125 28.6875 39.53125 28.722656 C 39.53125 29.113281 39.53125 29.503906 39.53125 29.890625 C 39.53125 29.929688 39.53125 29.964844 39.53125 30 C 39.53125 30.578125 39.53125 31.15625 39.53125 31.734375 C 39.53125 32.332031 39.53125 32.925781 39.527344 33.519531 C 39.527344 33.886719 39.527344 34.253906 39.527344 34.621094 C 39.527344 34.871094 39.527344 35.121094 39.527344 35.371094 C 39.527344 35.515625 39.527344 35.660156 39.527344 35.804688 C 39.527344 35.9375 39.527344 36.070312 39.527344 36.203125 C 39.527344 36.25 39.527344 36.296875 39.527344 36.347656 C 39.53125 36.632812 39.507812 36.871094 39.339844 37.109375 C 39.183594 37.253906 39.039062 37.316406 38.828125 37.316406 C 38.792969 37.316406 38.753906 37.316406 38.71875 37.316406 C 38.679688 37.316406 38.636719 37.316406 38.597656 37.316406 C 38.535156 37.316406 38.535156 37.316406 38.46875 37.316406 C 38.332031 37.320312 38.191406 37.320312 38.054688 37.320312 C 38.007812 37.320312 37.957031 37.320312 37.910156 37.320312 C 37.683594 37.320312 37.460938 37.320312 37.234375 37.320312 C 36.976562 37.320312 36.71875 37.320312 36.457031 37.324219 C 36.257812 37.324219 36.054688 37.324219 35.855469 37.324219 C 35.734375 37.324219 35.617188 37.324219 35.496094 37.328125 C 35.363281 37.328125 35.230469 37.328125 35.09375 37.328125 C 35.054688 37.328125 35.015625 37.328125 34.976562 37.328125 C 34.730469 37.328125 34.539062 37.296875 34.347656 37.128906 C 34.1875 36.953125 34.15625 36.746094 34.15625 36.511719 C 34.15625 36.464844 34.15625 36.421875 34.15625 36.375 C 34.15625 36.328125 34.15625 36.277344 34.15625 36.230469 C 34.15625 36.175781 34.15625 36.125 34.15625 36.074219 C 34.15625 35.929688 34.15625 35.785156 34.15625 35.644531 C 34.15625 35.488281 34.15625 35.332031 34.15625 35.179688 C 34.15625 34.910156 34.15625 34.644531 34.15625 34.375 C 34.15625 33.984375 34.152344 33.597656 34.152344 33.210938 C 34.152344 32.578125 34.152344 31.945312 34.152344 31.316406 C 34.152344 31.277344 34.152344 31.242188 34.152344 31.203125 C 34.152344 30.78125 34.148438 30.359375 34.148438 29.9375 C 34.148438 29.785156 34.148438 29.632812 34.148438 29.480469 C 34.148438 29.425781 34.148438 29.425781 34.148438 29.367188 C 34.148438 28.738281 34.148438 28.113281 34.148438 27.484375 C 34.144531 27.097656 34.144531 26.710938 34.144531 26.324219 C 34.144531 26.058594 34.144531 25.792969 34.144531 25.527344 C 34.144531 25.371094 34.144531 25.21875 34.144531 25.066406 C 34.144531 24.480469 34.144531 23.902344 34.042969 23.320312 C 34.03125 23.253906 34.019531 23.1875 34.011719 23.121094 C 33.992188 22.976562 33.945312 22.847656 33.894531 22.710938 C 33.886719 22.6875 33.878906 22.660156 33.871094 22.636719 C 33.640625 22.007812 33.28125 21.503906 32.6875 21.191406 C 32.542969 21.125 32.398438 21.070312 32.25 21.019531 C 32.226562 21.011719 32.203125 21.003906 32.183594 20.996094 C 31.570312 20.808594 30.8125 20.929688 30.25 21.210938 C 30.226562 21.226562 30.199219 21.238281 30.175781 21.253906 C 30.101562 21.292969 30.101562 21.292969 30.007812 21.328125 C 29.925781 21.351562 29.925781 21.351562 29.898438 21.425781 C 29.855469 21.457031 29.816406 21.488281 29.773438 21.519531 C 29.617188 21.632812 29.488281 21.746094 29.429688 21.933594 C 29.40625 21.933594 29.382812 21.933594 29.359375 21.933594 C 29.359375 21.96875 29.359375 22 29.359375 22.035156 C 29.339844 22.035156 29.316406 22.035156 29.292969 22.035156 C 29.292969 22.070312 29.292969 22.101562 29.292969 22.136719 C 29.273438 22.136719 29.25 22.136719 29.226562 22.136719 C 29.222656 22.160156 29.21875 22.183594 29.214844 22.210938 C 29.191406 22.3125 29.152344 22.386719 29.101562 22.480469 C 28.90625 22.863281 28.796875 23.28125 28.714844 23.703125 C 28.710938 23.730469 28.703125 23.753906 28.699219 23.78125 C 28.574219 24.472656 28.578125 25.175781 28.582031 25.875 C 28.582031 26.023438 28.582031 26.171875 28.582031 26.320312 C 28.582031 26.574219 28.582031 26.832031 28.582031 27.085938 C 28.582031 27.488281 28.582031 27.894531 28.582031 28.296875 C 28.582031 28.4375 28.582031 28.574219 28.582031 28.714844 C 28.582031 28.746094 28.582031 28.78125 28.582031 28.816406 C 28.582031 29.210938 28.578125 29.601562 28.578125 29.996094 C 28.578125 30.03125 28.578125 30.066406 28.578125 30.105469 C 28.578125 30.683594 28.582031 31.265625 28.582031 31.847656 C 28.582031 32.449219 28.582031 33.046875 28.578125 33.644531 C 28.578125 34.011719 28.578125 34.382812 28.582031 34.75 C 28.582031 35.003906 28.582031 35.253906 28.578125 35.507812 C 28.578125 35.652344 28.578125 35.796875 28.582031 35.945312 C 28.582031 36.078125 28.582031 36.210938 28.578125 36.34375 C 28.578125 36.390625 28.578125 36.441406 28.582031 36.488281 C 28.582031 36.742188 28.578125 36.929688 28.40625 37.125 C 28.183594 37.328125 27.953125 37.332031 27.664062 37.328125 C 27.621094 37.328125 27.578125 37.328125 27.535156 37.328125 C 27.421875 37.328125 27.308594 37.328125 27.195312 37.328125 C 27.078125 37.328125 26.957031 37.328125 26.839844 37.328125 C 26.640625 37.328125 26.441406 37.328125 26.238281 37.328125 C 26.007812 37.324219 25.777344 37.324219 25.546875 37.328125 C 25.324219 37.328125 25.101562 37.328125 24.878906 37.324219 C 24.785156 37.324219 24.691406 37.324219 24.597656 37.324219 C 24.464844 37.324219 24.332031 37.324219 24.203125 37.324219 C 24.164062 37.324219 24.125 37.324219 24.082031 37.324219 C 23.832031 37.324219 23.675781 37.285156 23.457031 37.15625 C 23.257812 36.945312 23.226562 36.667969 23.230469 36.386719 C 23.230469 36.355469 23.230469 36.320312 23.230469 36.285156 C 23.230469 36.175781 23.230469 36.0625 23.230469 35.949219 C 23.230469 35.867188 23.230469 35.789062 23.230469 35.707031 C 23.230469 35.527344 23.230469 35.351562 23.230469 35.175781 C 23.230469 34.914062 23.230469 34.648438 23.230469 34.386719 C 23.230469 33.917969 23.230469 33.449219 23.230469 32.980469 C 23.230469 32.570312 23.230469 32.160156 23.230469 31.746094 C 23.230469 31.707031 23.230469 31.707031 23.230469 31.664062 C 23.230469 31.554688 23.230469 31.445312 23.230469 31.332031 C 23.230469 30.296875 23.230469 29.257812 23.230469 28.222656 C 23.230469 27.300781 23.230469 26.378906 23.230469 25.457031 C 23.230469 25.21875 23.230469 24.984375 23.230469 24.746094 C 23.230469 24.703125 23.230469 24.703125 23.230469 24.660156 C 23.230469 23.890625 23.230469 23.121094 23.230469 22.347656 C 23.230469 22.265625 23.230469 22.183594 23.230469 22.101562 C 23.230469 22.046875 23.230469 21.992188 23.230469 21.933594 C 23.230469 21.523438 23.230469 21.113281 23.230469 20.703125 C 23.230469 20.238281 23.230469 19.769531 23.234375 19.304688 C 23.234375 19.042969 23.234375 18.78125 23.234375 18.519531 C 23.234375 18.324219 23.234375 18.128906 23.234375 17.9375 C 23.234375 17.855469 23.234375 17.777344 23.234375 17.699219 C 23.234375 17.59375 23.234375 17.484375 23.234375 17.378906 C 23.234375 17.347656 23.234375 17.316406 23.234375 17.285156 C 23.234375 17.0625 23.265625 16.835938 23.402344 16.65625 C 23.421875 16.644531 23.441406 16.628906 23.460938 16.613281 C 23.488281 16.589844 23.488281 16.589844 23.519531 16.566406 C 23.710938 16.449219 23.878906 16.449219 24.097656 16.449219 C 24.132812 16.449219 24.167969 16.449219 24.203125 16.449219 C 24.320312 16.449219 24.4375 16.449219 24.550781 16.449219 C 24.632812 16.445312 24.710938 16.445312 24.792969 16.445312 C 24.960938 16.445312 25.128906 16.445312 25.296875 16.445312 C 25.515625 16.445312 25.730469 16.445312 25.945312 16.445312 C 26.113281 16.445312 26.277344 16.441406 26.445312 16.441406 C 26.523438 16.441406 26.605469 16.441406 26.683594 16.441406 C 26.796875 16.441406 26.90625 16.441406 27.019531 16.441406 C 27.050781 16.441406 27.082031 16.441406 27.117188 16.441406 C 27.328125 16.441406 27.464844 16.484375 27.648438 16.59375 C 27.648438 16.617188 27.648438 16.636719 27.648438 16.660156 C 27.679688 16.675781 27.679688 16.675781 27.710938 16.6875 C 27.832031 16.757812 27.871094 16.871094 27.917969 17 C 27.964844 17.183594 28.003906 17.367188 28.039062 17.554688 C 28.050781 17.605469 28.0625 17.660156 28.074219 17.714844 C 28.097656 17.828125 28.117188 17.941406 28.140625 18.050781 C 28.171875 18.195312 28.199219 18.339844 28.230469 18.484375 C 28.253906 18.59375 28.277344 18.707031 28.296875 18.816406 C 28.308594 18.871094 28.320312 18.921875 28.332031 18.976562 C 28.347656 19.050781 28.359375 19.125 28.375 19.199219 C 28.390625 19.261719 28.390625 19.261719 28.402344 19.324219 C 28.421875 19.433594 28.421875 19.433594 28.421875 19.566406 C 28.476562 19.566406 28.53125 19.566406 28.589844 19.566406 C 28.597656 19.542969 28.597656 19.542969 28.605469 19.511719 C 28.824219 18.828125 29.195312 18.21875 29.664062 17.675781 C 29.691406 17.640625 29.71875 17.609375 29.746094 17.574219 C 29.972656 17.3125 30.226562 17.101562 30.503906 16.898438 C 30.535156 16.875 30.566406 16.851562 30.597656 16.824219 C 32.585938 15.398438 35.453125 15.835938 37.191406 17.417969 Z M 37.191406 17.417969 "/><path style=" stroke:none;fill-rule:nonzero;fill:rgb(100%,38.431373%,0.784314%);fill-opacity:1;" d="M 19.144531 40.34375 C 19.519531 40.570312 19.863281 40.847656 20.203125 41.121094 C 20.292969 41.191406 20.386719 41.261719 20.476562 41.335938 C 20.496094 41.347656 20.511719 41.363281 20.53125 41.375 C 20.566406 41.402344 20.601562 41.429688 20.636719 41.457031 C 20.695312 41.503906 20.757812 41.550781 20.816406 41.597656 C 20.835938 41.609375 20.855469 41.625 20.875 41.640625 C 20.914062 41.671875 20.949219 41.703125 20.988281 41.730469 C 21.066406 41.792969 21.148438 41.851562 21.230469 41.90625 C 21.230469 41.929688 21.230469 41.953125 21.230469 41.976562 C 21.257812 41.988281 21.257812 41.988281 21.285156 42 C 21.382812 42.050781 21.464844 42.109375 21.550781 42.171875 C 21.589844 42.199219 21.628906 42.226562 21.667969 42.253906 C 21.691406 42.269531 21.710938 42.285156 21.734375 42.296875 C 21.886719 42.40625 22.042969 42.511719 22.199219 42.617188 C 22.324219 42.707031 22.453125 42.792969 22.578125 42.882812 C 22.890625 43.101562 23.210938 43.308594 23.535156 43.511719 C 23.644531 43.582031 23.753906 43.648438 23.859375 43.71875 C 23.941406 43.769531 24.023438 43.820312 24.101562 43.871094 C 24.195312 43.929688 24.289062 43.992188 24.378906 44.050781 C 24.769531 44.300781 25.171875 44.519531 25.578125 44.742188 C 25.824219 44.878906 26.066406 45.015625 26.308594 45.15625 C 26.738281 45.402344 27.1875 45.613281 27.628906 45.828125 C 27.699219 45.863281 27.769531 45.898438 27.839844 45.933594 C 28.300781 46.15625 28.761719 46.375 29.234375 46.570312 C 29.277344 46.589844 29.320312 46.609375 29.367188 46.625 C 29.4375 46.65625 29.503906 46.6875 29.574219 46.714844 C 29.730469 46.78125 29.882812 46.84375 30.039062 46.910156 C 30.148438 46.957031 30.253906 47 30.363281 47.046875 C 30.414062 47.070312 30.46875 47.089844 30.519531 47.113281 C 30.78125 47.222656 31.042969 47.332031 31.316406 47.417969 C 31.484375 47.472656 31.652344 47.535156 31.820312 47.597656 C 33.113281 48.070312 33.113281 48.070312 34.433594 48.464844 C 34.5 48.480469 34.566406 48.5 34.636719 48.519531 C 34.746094 48.546875 34.855469 48.578125 34.964844 48.609375 C 35.148438 48.65625 35.332031 48.707031 35.511719 48.757812 C 36.09375 48.921875 36.675781 49.074219 37.257812 49.21875 C 37.300781 49.230469 37.339844 49.242188 37.382812 49.253906 C 37.503906 49.28125 37.625 49.3125 37.746094 49.34375 C 37.78125 49.351562 37.816406 49.363281 37.855469 49.371094 C 38.0625 49.421875 38.269531 49.464844 38.480469 49.496094 C 38.566406 49.511719 38.566406 49.511719 38.679688 49.546875 C 38.785156 49.574219 38.878906 49.589844 38.984375 49.605469 C 39.175781 49.636719 39.363281 49.671875 39.554688 49.710938 C 39.597656 49.71875 39.597656 49.71875 39.640625 49.726562 C 39.703125 49.742188 39.761719 49.753906 39.824219 49.765625 C 40.972656 50.003906 42.125 50.191406 43.285156 50.355469 C 43.320312 50.359375 43.359375 50.363281 43.394531 50.371094 C 43.761719 50.421875 44.128906 50.46875 44.5 50.484375 C 44.617188 50.492188 44.730469 50.507812 44.847656 50.527344 C 44.902344 50.53125 44.957031 50.539062 45.011719 50.542969 C 45.113281 50.550781 45.210938 50.5625 45.3125 50.574219 C 45.523438 50.597656 45.738281 50.613281 45.953125 50.632812 C 45.996094 50.632812 46.042969 50.636719 46.089844 50.640625 C 46.234375 50.652344 46.382812 50.664062 46.527344 50.675781 C 46.550781 50.675781 46.578125 50.679688 46.601562 50.679688 C 47.402344 50.742188 48.203125 50.796875 49.007812 50.828125 C 49.078125 50.828125 49.148438 50.832031 49.222656 50.835938 C 51.546875 50.929688 53.882812 50.863281 56.203125 50.695312 C 56.234375 50.691406 56.265625 50.691406 56.296875 50.6875 C 56.644531 50.664062 56.988281 50.636719 57.335938 50.609375 C 57.53125 50.59375 57.726562 50.578125 57.921875 50.566406 C 58.164062 50.546875 58.40625 50.511719 58.652344 50.476562 C 58.765625 50.460938 58.878906 50.453125 58.992188 50.445312 C 59.332031 50.421875 59.667969 50.371094 60.003906 50.324219 C 60.058594 50.316406 60.058594 50.316406 60.113281 50.308594 C 61.4375 50.121094 62.757812 49.894531 64.066406 49.621094 C 64.226562 49.585938 64.382812 49.558594 64.542969 49.527344 C 65.707031 49.316406 66.863281 49 68.003906 48.683594 C 68.136719 48.648438 68.273438 48.613281 68.410156 48.578125 C 68.542969 48.546875 68.671875 48.507812 68.800781 48.464844 C 68.855469 48.449219 68.90625 48.433594 68.960938 48.417969 C 69.804688 48.191406 70.628906 47.910156 71.445312 47.601562 C 71.664062 47.515625 71.886719 47.441406 72.109375 47.367188 C 72.53125 47.230469 72.929688 47.050781 73.335938 46.875 C 73.445312 46.828125 73.558594 46.777344 73.671875 46.730469 C 73.78125 46.679688 73.890625 46.632812 74 46.585938 C 74.167969 46.511719 74.335938 46.4375 74.507812 46.371094 C 74.726562 46.285156 74.933594 46.175781 75.144531 46.066406 C 75.261719 46.007812 75.378906 45.949219 75.496094 45.890625 C 75.539062 45.867188 75.585938 45.84375 75.632812 45.820312 C 75.726562 45.773438 75.820312 45.726562 75.910156 45.679688 C 75.933594 45.667969 75.957031 45.65625 75.980469 45.644531 C 76.027344 45.625 76.070312 45.601562 76.113281 45.578125 C 76.203125 45.535156 76.289062 45.492188 76.375 45.449219 C 77.550781 44.847656 77.550781 44.847656 78.0625 44.988281 C 78.34375 45.09375 78.554688 45.285156 78.675781 45.558594 C 78.757812 45.84375 78.777344 46.128906 78.644531 46.402344 C 78.617188 46.460938 78.59375 46.515625 78.570312 46.574219 C 78.550781 46.617188 78.527344 46.664062 78.507812 46.707031 C 78.488281 46.707031 78.464844 46.707031 78.441406 46.707031 C 78.4375 46.730469 78.4375 46.757812 78.433594 46.78125 C 78.402344 46.894531 78.355469 46.929688 78.273438 47.011719 C 78.234375 47.058594 78.195312 47.109375 78.15625 47.160156 C 78.027344 47.324219 77.890625 47.476562 77.75 47.628906 C 77.636719 47.75 77.527344 47.875 77.421875 48 C 77.347656 48.078125 77.253906 48.132812 77.164062 48.195312 C 77.105469 48.246094 77.050781 48.296875 76.996094 48.351562 C 76.824219 48.507812 76.644531 48.652344 76.457031 48.789062 C 76.359375 48.867188 76.359375 48.867188 76.277344 48.953125 C 76.179688 49.050781 76.074219 49.125 75.960938 49.203125 C 75.804688 49.3125 75.660156 49.425781 75.519531 49.554688 C 75.417969 49.644531 75.308594 49.722656 75.199219 49.804688 C 75.175781 49.820312 75.148438 49.839844 75.125 49.859375 C 74.304688 50.441406 73.453125 50.984375 72.582031 51.484375 C 72.484375 51.542969 72.386719 51.597656 72.289062 51.65625 C 71.742188 51.988281 71.171875 52.277344 70.59375 52.550781 C 70.457031 52.613281 70.324219 52.679688 70.191406 52.75 C 69.949219 52.875 69.703125 52.988281 69.457031 53.105469 C 69.421875 53.121094 69.382812 53.140625 69.34375 53.15625 C 69.167969 53.238281 68.992188 53.3125 68.808594 53.371094 C 68.726562 53.402344 68.648438 53.433594 68.570312 53.472656 C 68.285156 53.605469 67.988281 53.722656 67.695312 53.839844 C 67.660156 53.851562 67.628906 53.863281 67.597656 53.878906 C 67.046875 54.097656 66.488281 54.292969 65.925781 54.476562 C 65.757812 54.53125 65.59375 54.585938 65.425781 54.644531 C 64.957031 54.804688 64.484375 54.957031 64.007812 55.105469 C 63.984375 55.113281 63.960938 55.117188 63.9375 55.125 C 63.671875 55.207031 63.402344 55.28125 63.128906 55.335938 C 63.011719 55.359375 62.902344 55.394531 62.785156 55.425781 C 62.6875 55.453125 62.585938 55.480469 62.484375 55.503906 C 62.453125 55.511719 62.425781 55.519531 62.394531 55.527344 C 61.621094 55.722656 60.847656 55.90625 60.066406 56.066406 C 60.035156 56.074219 60.007812 56.082031 59.976562 56.085938 C 59.757812 56.128906 59.539062 56.175781 59.324219 56.21875 C 59.292969 56.222656 59.265625 56.230469 59.234375 56.234375 C 58.667969 56.347656 58.667969 56.347656 58.394531 56.367188 C 58.3125 56.371094 58.230469 56.390625 58.152344 56.40625 C 58.105469 56.414062 58.058594 56.417969 58.011719 56.421875 C 57.890625 56.433594 57.890625 56.433594 57.816406 56.472656 C 57.761719 56.480469 57.707031 56.484375 57.652344 56.488281 C 57.449219 56.507812 57.25 56.53125 57.050781 56.558594 C 56.972656 56.566406 56.894531 56.578125 56.820312 56.585938 C 56.777344 56.59375 56.738281 56.597656 56.699219 56.601562 C 54.792969 56.847656 52.882812 56.992188 50.960938 57.015625 C 50.933594 57.015625 50.90625 57.015625 50.878906 57.015625 C 48.246094 57.050781 45.625 56.84375 43.019531 56.46875 C 42.867188 56.449219 42.714844 56.429688 42.558594 56.414062 C 42.464844 56.402344 42.371094 56.378906 42.277344 56.355469 C 42.203125 56.339844 42.132812 56.332031 42.058594 56.324219 C 41.890625 56.304688 41.730469 56.277344 41.566406 56.246094 C 41.535156 56.238281 41.503906 56.230469 41.472656 56.226562 C 41.375 56.207031 41.273438 56.1875 41.175781 56.167969 C 41.125 56.15625 41.125 56.15625 41.070312 56.148438 C 40.144531 55.964844 39.226562 55.757812 38.308594 55.523438 C 38.285156 55.515625 38.261719 55.511719 38.238281 55.503906 C 38.171875 55.488281 38.105469 55.46875 38.039062 55.453125 C 37.917969 55.425781 37.800781 55.398438 37.679688 55.378906 C 37.5625 55.351562 37.449219 55.320312 37.332031 55.285156 C 37.308594 55.277344 37.28125 55.269531 37.253906 55.261719 C 37.171875 55.238281 37.089844 55.214844 37.007812 55.191406 C 36.980469 55.183594 36.949219 55.175781 36.921875 55.167969 C 36.222656 54.960938 35.527344 54.75 34.847656 54.492188 C 34.695312 54.433594 34.542969 54.382812 34.386719 54.335938 C 33.746094 54.140625 33.117188 53.875 32.503906 53.605469 C 32.351562 53.539062 32.199219 53.472656 32.046875 53.40625 C 32.019531 53.394531 31.988281 53.378906 31.957031 53.367188 C 31.800781 53.300781 31.644531 53.234375 31.484375 53.175781 C 31.304688 53.109375 31.132812 53.023438 30.960938 52.9375 C 30.761719 52.832031 30.554688 52.734375 30.351562 52.636719 C 29.53125 52.246094 28.730469 51.820312 27.945312 51.351562 C 27.816406 51.277344 27.6875 51.199219 27.554688 51.128906 C 27.222656 50.949219 26.90625 50.738281 26.589844 50.53125 C 26.429688 50.425781 26.265625 50.324219 26.101562 50.222656 C 25.84375 50.0625 25.597656 49.894531 25.351562 49.722656 C 25.304688 49.6875 25.257812 49.652344 25.207031 49.621094 C 24.671875 49.246094 24.132812 48.863281 23.648438 48.417969 C 23.589844 48.367188 23.53125 48.324219 23.464844 48.28125 C 23.382812 48.226562 23.382812 48.226562 23.347656 48.160156 C 23.324219 48.160156 23.304688 48.160156 23.28125 48.160156 C 23.28125 48.136719 23.28125 48.113281 23.28125 48.09375 C 23.246094 48.09375 23.214844 48.09375 23.179688 48.09375 C 23.179688 48.070312 23.179688 48.046875 23.179688 48.023438 C 23.15625 48.023438 23.136719 48.023438 23.113281 48.023438 C 23.113281 48.003906 23.113281 47.980469 23.113281 47.957031 C 23.09375 47.949219 23.074219 47.941406 23.054688 47.933594 C 22.960938 47.878906 22.886719 47.8125 22.808594 47.734375 C 22.652344 47.589844 22.492188 47.453125 22.328125 47.320312 C 22.132812 47.160156 21.949219 46.988281 21.769531 46.808594 C 21.742188 46.785156 21.714844 46.761719 21.683594 46.742188 C 21.59375 46.667969 21.515625 46.585938 21.433594 46.503906 C 21.398438 46.46875 21.363281 46.433594 21.328125 46.398438 C 21.25 46.320312 21.175781 46.246094 21.101562 46.171875 C 21.082031 46.152344 21.066406 46.132812 21.046875 46.117188 C 21.003906 46.070312 20.960938 46.027344 20.914062 45.984375 C 20.84375 45.910156 20.769531 45.835938 20.695312 45.761719 C 20.644531 45.714844 20.597656 45.667969 20.550781 45.617188 C 20.523438 45.59375 20.5 45.570312 20.472656 45.542969 C 20.449219 45.519531 20.425781 45.496094 20.402344 45.472656 C 20.378906 45.453125 20.359375 45.429688 20.335938 45.410156 C 20.289062 45.355469 20.289062 45.355469 20.289062 45.285156 C 20.257812 45.277344 20.222656 45.265625 20.191406 45.253906 C 20.132812 45.191406 20.132812 45.191406 20.070312 45.117188 C 19.992188 45.019531 19.992188 45.019531 19.886719 44.949219 C 19.886719 44.925781 19.886719 44.90625 19.886719 44.882812 C 19.867188 44.882812 19.84375 44.882812 19.820312 44.882812 C 19.785156 44.824219 19.753906 44.769531 19.71875 44.710938 C 19.660156 44.636719 19.59375 44.570312 19.527344 44.5 C 19.488281 44.460938 19.453125 44.421875 19.417969 44.382812 C 19.398438 44.363281 19.382812 44.34375 19.363281 44.324219 C 19.25 44.199219 19.136719 44.070312 19.027344 43.9375 C 18.957031 43.855469 18.886719 43.773438 18.804688 43.695312 C 18.746094 43.632812 18.746094 43.632812 18.703125 43.558594 C 18.632812 43.441406 18.550781 43.339844 18.46875 43.234375 C 18.433594 43.191406 18.402344 43.148438 18.367188 43.105469 C 18.316406 43.039062 18.261719 42.972656 18.207031 42.902344 C 18.058594 42.714844 17.929688 42.519531 17.804688 42.3125 C 17.785156 42.28125 17.765625 42.25 17.746094 42.21875 C 17.460938 41.757812 17.210938 41.125 17.316406 40.578125 C 17.378906 40.359375 17.480469 40.183594 17.679688 40.070312 C 18.183594 39.851562 18.699219 40.09375 19.144531 40.34375 Z M 19.144531 40.34375 "/><path style=" stroke:none;fill-rule:nonzero;fill:rgb(9.411765%,10.980392%,15.294118%);fill-opacity:1;" d="M 12.183594 15.984375 C 13.332031 15.960938 14.46875 16.078125 15.566406 16.429688 C 15.660156 16.460938 15.753906 16.484375 15.847656 16.511719 C 16.089844 16.574219 16.304688 16.683594 16.527344 16.796875 C 16.550781 16.808594 16.570312 16.820312 16.59375 16.828125 C 16.882812 16.976562 17.144531 17.136719 17.402344 17.335938 C 17.4375 17.363281 17.472656 17.390625 17.507812 17.417969 C 17.984375 17.773438 18.429688 18.179688 18.757812 18.683594 C 18.8125 18.757812 18.8125 18.757812 18.878906 18.824219 C 18.953125 18.898438 19.003906 18.972656 19.054688 19.0625 C 19.074219 19.09375 19.089844 19.121094 19.109375 19.152344 C 19.148438 19.230469 19.148438 19.230469 19.148438 19.332031 C 19.171875 19.332031 19.191406 19.332031 19.214844 19.332031 C 20.121094 21.183594 20.261719 23.070312 20.261719 25.097656 C 20.261719 25.253906 20.261719 25.40625 20.261719 25.5625 C 20.261719 25.902344 20.261719 26.238281 20.265625 26.574219 C 20.265625 26.785156 20.265625 26.996094 20.265625 27.207031 C 20.265625 27.792969 20.265625 28.378906 20.265625 28.964844 C 20.265625 29 20.265625 29.039062 20.265625 29.078125 C 20.265625 29.113281 20.265625 29.152344 20.265625 29.191406 C 20.265625 29.265625 20.265625 29.339844 20.265625 29.417969 C 20.265625 29.453125 20.265625 29.492188 20.265625 29.53125 C 20.265625 30.140625 20.265625 30.75 20.265625 31.359375 C 20.265625 31.988281 20.269531 32.617188 20.269531 33.242188 C 20.269531 33.59375 20.269531 33.949219 20.269531 34.300781 C 20.269531 34.597656 20.269531 34.898438 20.269531 35.195312 C 20.269531 35.347656 20.269531 35.5 20.269531 35.652344 C 20.269531 35.792969 20.269531 35.933594 20.269531 36.074219 C 20.269531 36.125 20.269531 36.175781 20.269531 36.222656 C 20.273438 36.851562 20.273438 36.851562 20.09375 37.089844 C 20.070312 37.105469 20.050781 37.125 20.027344 37.140625 C 19.992188 37.167969 19.992188 37.167969 19.960938 37.195312 C 19.769531 37.320312 19.597656 37.320312 19.375 37.320312 C 19.339844 37.320312 19.308594 37.320312 19.269531 37.324219 C 19.15625 37.324219 19.042969 37.324219 18.929688 37.324219 C 18.847656 37.324219 18.769531 37.324219 18.691406 37.324219 C 18.523438 37.324219 18.355469 37.324219 18.191406 37.324219 C 17.976562 37.324219 17.761719 37.328125 17.550781 37.328125 C 17.386719 37.328125 17.222656 37.328125 17.058594 37.328125 C 16.976562 37.328125 16.898438 37.332031 16.820312 37.332031 C 16.710938 37.332031 16.601562 37.332031 16.492188 37.332031 C 16.441406 37.332031 16.441406 37.332031 16.394531 37.332031 C 16.144531 37.332031 15.910156 37.265625 15.730469 37.082031 C 15.632812 36.957031 15.589844 36.828125 15.554688 36.667969 C 15.550781 36.648438 15.542969 36.625 15.539062 36.605469 C 15.503906 36.453125 15.472656 36.296875 15.445312 36.144531 C 15.402344 35.933594 15.355469 35.722656 15.308594 35.511719 C 15.304688 35.480469 15.296875 35.453125 15.289062 35.421875 C 15.261719 35.296875 15.234375 35.171875 15.207031 35.050781 C 15.1875 34.957031 15.167969 34.867188 15.144531 34.773438 C 15.140625 34.746094 15.132812 34.71875 15.128906 34.691406 C 15.097656 34.558594 15.074219 34.4375 15.082031 34.304688 C 15.027344 34.304688 14.972656 34.304688 14.914062 34.304688 C 14.90625 34.332031 14.898438 34.359375 14.890625 34.386719 C 14.644531 35.078125 14.183594 35.710938 13.671875 36.230469 C 13.652344 36.253906 13.628906 36.277344 13.605469 36.304688 C 12.746094 37.230469 11.347656 37.738281 10.113281 37.785156 C 9.363281 37.808594 8.652344 37.734375 7.929688 37.546875 C 7.90625 37.542969 7.882812 37.535156 7.859375 37.53125 C 7.554688 37.449219 7.277344 37.316406 6.996094 37.179688 C 6.960938 37.164062 6.925781 37.148438 6.890625 37.128906 C 6.378906 36.878906 5.957031 36.550781 5.542969 36.160156 C 5.507812 36.128906 5.507812 36.128906 5.472656 36.097656 C 4.339844 35.007812 3.824219 33.328125 3.785156 31.789062 C 3.761719 30.472656 3.949219 29.09375 4.636719 27.949219 C 4.652344 27.921875 4.652344 27.921875 4.671875 27.890625 C 5.390625 26.691406 6.363281 25.851562 7.582031 25.1875 C 7.617188 25.167969 7.652344 25.152344 7.6875 25.132812 C 9.109375 24.375 10.871094 24.097656 12.464844 24.0625 C 12.5 24.0625 12.535156 24.0625 12.570312 24.0625 C 13.359375 24.046875 14.140625 24.078125 14.914062 24.230469 C 14.890625 22.441406 14.890625 22.441406 14.144531 20.851562 C 14.121094 20.824219 14.097656 20.792969 14.070312 20.761719 C 13.660156 20.304688 13.019531 20.070312 12.417969 20.035156 C 11.539062 20.007812 10.746094 20.175781 10.074219 20.78125 C 10.003906 20.851562 10.003906 20.851562 9.976562 20.953125 C 9.945312 20.976562 9.910156 21 9.875 21.019531 C 9.867188 21.054688 9.855469 21.089844 9.84375 21.121094 C 9.828125 21.136719 9.8125 21.152344 9.796875 21.167969 C 9.414062 21.5625 9.269531 22.269531 9.105469 22.777344 C 9.082031 22.777344 9.058594 22.777344 9.035156 22.777344 C 9.035156 22.800781 9.035156 22.824219 9.035156 22.847656 C 9.015625 22.847656 8.992188 22.847656 8.96875 22.847656 C 8.96875 22.867188 8.96875 22.890625 8.96875 22.914062 C 8.726562 23.085938 8.472656 23.066406 8.191406 23.015625 C 8.167969 23.011719 8.144531 23.007812 8.117188 23.003906 C 8.089844 23 8.0625 22.992188 8.035156 22.988281 C 7.949219 22.972656 7.863281 22.957031 7.773438 22.9375 C 7.710938 22.929688 7.652344 22.917969 7.589844 22.90625 C 7.429688 22.875 7.269531 22.847656 7.105469 22.816406 C 6.851562 22.769531 6.59375 22.71875 6.335938 22.671875 C 6.246094 22.65625 6.15625 22.640625 6.066406 22.625 C 5.703125 22.554688 5.703125 22.554688 5.335938 22.515625 C 5.234375 22.503906 5.136719 22.472656 5.039062 22.441406 C 4.988281 22.429688 4.9375 22.421875 4.886719 22.414062 C 4.726562 22.378906 4.625 22.3125 4.5 22.203125 C 4.5 22.171875 4.5 22.136719 4.5 22.101562 C 4.480469 22.101562 4.457031 22.101562 4.433594 22.101562 C 4.210938 21.421875 4.640625 20.5625 4.941406 19.960938 C 5.007812 19.839844 5.070312 19.71875 5.140625 19.601562 C 5.160156 19.566406 5.179688 19.53125 5.199219 19.496094 C 5.332031 19.269531 5.332031 19.269531 5.410156 19.230469 C 5.410156 19.195312 5.410156 19.164062 5.410156 19.128906 C 5.429688 19.128906 5.453125 19.128906 5.476562 19.128906 C 5.476562 19.09375 5.476562 19.0625 5.476562 19.027344 C 5.523438 18.972656 5.523438 18.972656 5.578125 18.925781 C 5.585938 18.902344 5.597656 18.882812 5.609375 18.859375 C 5.632812 18.859375 5.65625 18.859375 5.675781 18.859375 C 5.675781 18.824219 5.675781 18.792969 5.675781 18.757812 C 5.710938 18.71875 5.75 18.679688 5.785156 18.644531 C 5.859375 18.574219 5.929688 18.5 6 18.429688 C 6.0625 18.371094 6.121094 18.308594 6.179688 18.25 C 6.207031 18.21875 6.238281 18.191406 6.269531 18.160156 C 6.566406 17.859375 6.566406 17.859375 6.71875 17.742188 C 6.742188 17.742188 6.761719 17.742188 6.785156 17.742188 C 6.785156 17.722656 6.785156 17.699219 6.785156 17.675781 C 6.867188 17.621094 6.949219 17.566406 7.035156 17.515625 C 7.1875 17.425781 7.335938 17.328125 7.480469 17.222656 C 7.679688 17.082031 7.890625 16.980469 8.105469 16.875 C 8.144531 16.855469 8.183594 16.835938 8.222656 16.816406 C 8.476562 16.695312 8.730469 16.605469 9.003906 16.527344 C 9.050781 16.511719 9.101562 16.492188 9.152344 16.476562 C 10.121094 16.140625 11.160156 16.007812 12.183594 15.984375 Z M 10.125 28.304688 C 9.652344 28.859375 9.371094 29.53125 9.273438 30.246094 C 9.265625 30.289062 9.265625 30.289062 9.257812 30.335938 C 9.140625 31.253906 9.308594 32.203125 9.863281 32.957031 C 10.238281 33.40625 10.8125 33.6875 11.386719 33.761719 C 12.128906 33.804688 12.804688 33.703125 13.402344 33.222656 C 13.433594 33.199219 13.460938 33.175781 13.488281 33.152344 C 14.171875 32.566406 14.5 31.71875 14.679688 30.855469 C 14.6875 30.828125 14.691406 30.800781 14.699219 30.769531 C 14.78125 30.363281 14.847656 29.953125 14.882812 29.539062 C 14.886719 29.492188 14.886719 29.492188 14.890625 29.441406 C 14.929688 28.972656 14.917969 28.503906 14.917969 28.035156 C 14.917969 27.945312 14.917969 27.855469 14.917969 27.765625 C 14.917969 27.542969 14.917969 27.324219 14.914062 27.105469 C 14.824219 27.089844 14.734375 27.070312 14.644531 27.054688 C 14.617188 27.050781 14.59375 27.046875 14.566406 27.042969 C 14.347656 27.003906 14.128906 26.976562 13.90625 26.96875 C 13.863281 26.96875 13.820312 26.964844 13.777344 26.964844 C 12.425781 26.925781 11.082031 27.3125 10.125 28.304688 Z M 10.125 28.304688 "/><path style=" stroke:none;fill-rule:nonzero;fill:rgb(9.411765%,10.980392%,15.294118%);fill-opacity:1;" d="M 64.835938 16.457031 C 64.882812 16.472656 64.929688 16.488281 64.976562 16.5 C 65.625 16.703125 66.171875 17.039062 66.71875 17.4375 C 66.738281 17.453125 66.757812 17.46875 66.777344 17.484375 C 67.195312 17.792969 67.574219 18.1875 67.871094 18.617188 C 67.921875 18.691406 67.921875 18.691406 67.992188 18.722656 C 67.992188 18.757812 67.992188 18.789062 67.992188 18.824219 C 68.015625 18.824219 68.039062 18.824219 68.0625 18.824219 C 68.128906 18.925781 68.128906 18.925781 68.128906 19.027344 C 68.148438 19.027344 68.171875 19.027344 68.195312 19.027344 C 68.195312 19.0625 68.195312 19.09375 68.195312 19.128906 C 68.21875 19.128906 68.238281 19.128906 68.261719 19.128906 C 68.273438 19.183594 68.285156 19.238281 68.296875 19.296875 C 68.316406 19.296875 68.339844 19.296875 68.363281 19.296875 C 68.378906 19.335938 68.398438 19.378906 68.414062 19.417969 C 68.457031 19.515625 68.5 19.609375 68.546875 19.703125 C 69.042969 20.710938 69.394531 21.96875 69.371094 23.101562 C 69.371094 23.164062 69.371094 23.222656 69.371094 23.285156 C 69.382812 23.296875 69.394531 23.308594 69.40625 23.320312 C 69.40625 23.390625 69.410156 23.460938 69.410156 23.53125 C 69.410156 23.554688 69.410156 23.578125 69.410156 23.601562 C 69.410156 23.679688 69.410156 23.753906 69.410156 23.832031 C 69.410156 23.886719 69.410156 23.941406 69.410156 24 C 69.410156 24.152344 69.410156 24.304688 69.410156 24.457031 C 69.410156 24.621094 69.410156 24.785156 69.410156 24.949219 C 69.410156 25.3125 69.410156 25.671875 69.410156 26.03125 C 69.410156 26.257812 69.410156 26.480469 69.410156 26.707031 C 69.414062 27.328125 69.414062 27.949219 69.414062 28.570312 C 69.414062 28.609375 69.414062 28.652344 69.414062 28.691406 C 69.414062 28.730469 69.414062 28.773438 69.414062 28.8125 C 69.414062 28.894531 69.414062 28.976562 69.414062 29.054688 C 69.414062 29.097656 69.414062 29.136719 69.414062 29.175781 C 69.414062 29.828125 69.414062 30.476562 69.414062 31.128906 C 69.414062 31.796875 69.414062 32.464844 69.414062 33.128906 C 69.414062 33.503906 69.414062 33.878906 69.417969 34.253906 C 69.417969 34.574219 69.417969 34.894531 69.417969 35.214844 C 69.417969 35.375 69.417969 35.539062 69.417969 35.703125 C 69.417969 35.851562 69.417969 36 69.417969 36.148438 C 69.417969 36.203125 69.417969 36.257812 69.417969 36.3125 C 69.417969 36.382812 69.417969 36.457031 69.417969 36.53125 C 69.417969 36.570312 69.417969 36.613281 69.417969 36.65625 C 69.394531 36.855469 69.3125 37.03125 69.167969 37.175781 C 68.96875 37.3125 68.785156 37.332031 68.542969 37.328125 C 68.507812 37.328125 68.472656 37.328125 68.4375 37.328125 C 68.324219 37.328125 68.210938 37.328125 68.097656 37.328125 C 68.015625 37.328125 67.9375 37.328125 67.859375 37.328125 C 67.691406 37.328125 67.523438 37.328125 67.359375 37.328125 C 67.144531 37.324219 66.929688 37.324219 66.71875 37.328125 C 66.554688 37.328125 66.390625 37.328125 66.222656 37.324219 C 66.144531 37.324219 66.066406 37.324219 65.988281 37.324219 C 65.878906 37.324219 65.769531 37.324219 65.660156 37.324219 C 65.625 37.324219 65.59375 37.324219 65.5625 37.324219 C 65.273438 37.320312 65.078125 37.25 64.871094 37.039062 C 64.761719 36.878906 64.722656 36.726562 64.703125 36.535156 C 64.683594 36.480469 64.667969 36.421875 64.652344 36.367188 C 64.613281 36.222656 64.589844 36.074219 64.5625 35.925781 C 64.480469 35.523438 64.394531 35.121094 64.304688 34.71875 C 64.300781 34.683594 64.300781 34.683594 64.292969 34.648438 C 64.277344 34.589844 64.265625 34.527344 64.25 34.464844 C 64.230469 34.371094 64.230469 34.371094 64.230469 34.304688 C 64.175781 34.304688 64.121094 34.304688 64.0625 34.304688 C 64.058594 34.328125 64.054688 34.351562 64.050781 34.378906 C 63.863281 35.21875 63.039062 36.128906 62.382812 36.636719 C 62.363281 36.652344 62.339844 36.671875 62.320312 36.6875 C 61.554688 37.296875 60.621094 37.625 59.664062 37.75 C 59.628906 37.753906 59.59375 37.757812 59.558594 37.765625 C 58.027344 37.925781 56.429688 37.539062 55.195312 36.601562 C 55.085938 36.511719 54.980469 36.410156 54.878906 36.3125 C 54.808594 36.246094 54.742188 36.1875 54.667969 36.128906 C 54.148438 35.683594 53.667969 34.914062 53.449219 34.269531 C 53.433594 34.238281 53.421875 34.207031 53.410156 34.171875 C 53.113281 33.394531 52.972656 32.5625 52.945312 31.734375 C 52.941406 31.695312 52.941406 31.652344 52.941406 31.609375 C 52.925781 30.667969 53.085938 29.75 53.378906 28.863281 C 53.394531 28.824219 53.40625 28.785156 53.417969 28.746094 C 53.960938 27.1875 55.246094 26.050781 56.625 25.253906 C 56.65625 25.234375 56.6875 25.214844 56.71875 25.199219 C 57.144531 24.957031 57.605469 24.800781 58.070312 24.652344 C 58.09375 24.644531 58.117188 24.636719 58.144531 24.628906 C 59.722656 24.117188 61.398438 23.980469 63.046875 24.089844 C 63.097656 24.09375 63.097656 24.09375 63.15625 24.097656 C 63.460938 24.121094 63.761719 24.175781 64.0625 24.230469 C 64.050781 23.335938 64.027344 22.484375 63.726562 21.628906 C 63.714844 21.597656 63.714844 21.597656 63.703125 21.5625 C 63.515625 21.03125 63.15625 20.566406 62.644531 20.320312 C 61.863281 19.964844 60.945312 19.925781 60.136719 20.222656 C 59.78125 20.371094 59.503906 20.546875 59.226562 20.820312 C 59.199219 20.839844 59.175781 20.863281 59.152344 20.890625 C 59.082031 20.953125 59.082031 20.953125 59.058594 21.054688 C 59.027344 21.085938 59.027344 21.085938 58.996094 21.113281 C 58.902344 21.210938 58.84375 21.320312 58.78125 21.4375 C 58.769531 21.460938 58.753906 21.488281 58.742188 21.511719 C 58.617188 21.753906 58.53125 22.011719 58.449219 22.269531 C 58.351562 22.566406 58.21875 22.863281 57.941406 23.027344 C 57.714844 23.082031 57.484375 23.046875 57.261719 23.003906 C 57.234375 23 57.207031 22.992188 57.179688 22.988281 C 57.09375 22.972656 57.003906 22.957031 56.917969 22.9375 C 56.855469 22.929688 56.796875 22.917969 56.734375 22.90625 C 56.574219 22.875 56.414062 22.847656 56.253906 22.816406 C 55.996094 22.769531 55.738281 22.71875 55.480469 22.671875 C 55.390625 22.65625 55.300781 22.640625 55.214844 22.625 C 54.851562 22.554688 54.851562 22.554688 54.484375 22.515625 C 54.378906 22.503906 54.285156 22.472656 54.1875 22.441406 C 54.160156 22.433594 54.128906 22.425781 54.101562 22.417969 C 54.070312 22.40625 54.042969 22.398438 54.011719 22.390625 C 53.96875 22.378906 53.96875 22.378906 53.925781 22.367188 C 53.851562 22.339844 53.851562 22.339844 53.75 22.273438 C 53.75 22.25 53.75 22.226562 53.75 22.203125 C 53.726562 22.203125 53.707031 22.203125 53.683594 22.203125 C 53.683594 22.183594 53.683594 22.160156 53.683594 22.136719 C 53.660156 22.136719 53.636719 22.136719 53.617188 22.136719 C 53.421875 21.710938 53.601562 21.199219 53.753906 20.785156 C 53.914062 20.367188 54.097656 19.960938 54.320312 19.566406 C 54.332031 19.546875 54.34375 19.523438 54.355469 19.503906 C 54.449219 19.335938 54.449219 19.335938 54.523438 19.296875 C 54.523438 19.265625 54.523438 19.230469 54.523438 19.195312 C 54.542969 19.195312 54.566406 19.195312 54.589844 19.195312 C 54.589844 19.164062 54.589844 19.128906 54.589844 19.09375 C 54.613281 19.09375 54.632812 19.09375 54.65625 19.09375 C 54.671875 19.027344 54.671875 19.027344 54.691406 18.960938 C 54.710938 18.960938 54.734375 18.960938 54.757812 18.960938 C 54.765625 18.925781 54.765625 18.925781 54.769531 18.894531 C 54.777344 18.871094 54.785156 18.847656 54.792969 18.824219 C 54.8125 18.8125 54.835938 18.800781 54.859375 18.789062 C 54.875 18.742188 54.875 18.742188 54.890625 18.6875 C 54.914062 18.671875 54.9375 18.652344 54.964844 18.632812 C 55.046875 18.566406 55.105469 18.503906 55.171875 18.425781 C 55.363281 18.203125 55.566406 17.988281 55.800781 17.8125 C 55.820312 17.8125 55.84375 17.8125 55.867188 17.8125 C 55.867188 17.789062 55.867188 17.765625 55.867188 17.742188 C 55.929688 17.699219 55.929688 17.699219 56.015625 17.644531 C 56.15625 17.558594 56.292969 17.46875 56.425781 17.371094 C 57.316406 16.738281 58.363281 16.402344 59.425781 16.1875 C 59.453125 16.183594 59.476562 16.179688 59.503906 16.171875 C 59.878906 16.097656 60.257812 16.050781 60.636719 16.019531 C 60.660156 16.015625 60.683594 16.015625 60.707031 16.011719 C 62.101562 15.898438 63.5 16.042969 64.835938 16.457031 Z M 59.5625 28.050781 C 59.527344 28.078125 59.496094 28.109375 59.460938 28.140625 C 58.820312 28.730469 58.453125 29.632812 58.414062 30.5 C 58.386719 31.429688 58.476562 32.285156 59.09375 33.023438 C 59.535156 33.492188 60.105469 33.742188 60.742188 33.773438 C 61.46875 33.789062 62.140625 33.632812 62.6875 33.121094 C 62.722656 33.085938 62.722656 33.085938 62.761719 33.050781 C 63.152344 32.683594 63.507812 32.132812 63.640625 31.609375 C 63.660156 31.53125 63.660156 31.53125 63.691406 31.441406 C 63.96875 30.589844 64.070312 29.671875 64.066406 28.78125 C 64.066406 28.734375 64.066406 28.683594 64.066406 28.636719 C 64.066406 28.507812 64.066406 28.382812 64.066406 28.253906 C 64.066406 28.125 64.066406 27.996094 64.066406 27.867188 C 64.066406 27.613281 64.0625 27.359375 64.0625 27.105469 C 63.917969 27.066406 63.777344 27.03125 63.628906 27.015625 C 63.597656 27.011719 63.570312 27.011719 63.539062 27.007812 C 63.507812 27.003906 63.476562 27 63.445312 27 C 63.414062 26.996094 63.382812 26.992188 63.347656 26.992188 C 62.007812 26.882812 60.59375 27.125 59.5625 28.050781 Z M 59.5625 28.050781 "/><path style=" stroke:none;fill-rule:nonzero;fill:rgb(9.411765%,10.980392%,15.294118%);fill-opacity:1;" d="M 118.882812 15.980469 C 120.199219 15.945312 121.632812 16.308594 122.609375 17.234375 C 122.636719 17.257812 122.660156 17.28125 122.683594 17.304688 C 122.730469 17.34375 122.773438 17.382812 122.820312 17.421875 C 122.839844 17.441406 122.863281 17.460938 122.882812 17.480469 C 122.933594 17.523438 122.984375 17.566406 123.035156 17.609375 C 123.253906 17.796875 123.433594 18.003906 123.589844 18.25 C 123.589844 18.273438 123.589844 18.292969 123.589844 18.316406 C 123.613281 18.316406 123.636719 18.316406 123.660156 18.316406 C 123.675781 18.347656 123.691406 18.378906 123.707031 18.410156 C 123.777344 18.527344 123.847656 18.640625 123.917969 18.753906 C 124.0625 18.984375 124.183594 19.222656 124.296875 19.46875 C 124.328125 19.53125 124.359375 19.59375 124.390625 19.65625 C 124.777344 20.433594 124.953125 21.347656 125.078125 22.199219 C 125.085938 22.234375 125.089844 22.265625 125.09375 22.300781 C 125.109375 22.414062 125.125 22.527344 125.136719 22.644531 C 125.140625 22.667969 125.140625 22.691406 125.144531 22.71875 C 125.214844 23.371094 125.214844 24.019531 125.214844 24.675781 C 125.214844 24.839844 125.214844 25 125.214844 25.164062 C 125.214844 25.519531 125.21875 25.875 125.21875 26.230469 C 125.21875 26.449219 125.21875 26.671875 125.21875 26.894531 C 125.21875 27.511719 125.21875 28.125 125.21875 28.742188 C 125.21875 28.800781 125.21875 28.800781 125.21875 28.859375 C 125.21875 28.898438 125.21875 28.9375 125.21875 28.976562 C 125.21875 29.058594 125.21875 29.136719 125.21875 29.21875 C 125.21875 29.277344 125.21875 29.277344 125.21875 29.335938 C 125.21875 29.976562 125.222656 30.621094 125.222656 31.261719 C 125.226562 31.921875 125.226562 32.582031 125.226562 33.242188 C 125.226562 33.613281 125.226562 33.980469 125.226562 34.351562 C 125.226562 34.667969 125.230469 34.980469 125.226562 35.296875 C 125.226562 35.457031 125.226562 35.617188 125.230469 35.777344 C 125.230469 35.925781 125.230469 36.070312 125.230469 36.21875 C 125.230469 36.269531 125.230469 36.324219 125.230469 36.375 C 125.234375 36.675781 125.21875 36.914062 125.003906 37.140625 C 124.855469 37.269531 124.71875 37.316406 124.527344 37.316406 C 124.472656 37.316406 124.472656 37.316406 124.417969 37.316406 C 124.378906 37.316406 124.339844 37.316406 124.296875 37.316406 C 124.234375 37.316406 124.234375 37.316406 124.171875 37.316406 C 124.058594 37.316406 123.945312 37.316406 123.832031 37.316406 C 123.757812 37.316406 123.6875 37.316406 123.617188 37.316406 C 123.394531 37.320312 123.171875 37.320312 122.945312 37.320312 C 122.691406 37.320312 122.433594 37.320312 122.175781 37.320312 C 121.976562 37.320312 121.777344 37.320312 121.578125 37.320312 C 121.460938 37.320312 121.339844 37.320312 121.222656 37.324219 C 121.089844 37.324219 120.957031 37.324219 120.824219 37.324219 C 120.785156 37.324219 120.746094 37.324219 120.707031 37.324219 C 120.480469 37.324219 120.257812 37.320312 120.082031 37.164062 C 119.921875 36.992188 119.886719 36.808594 119.886719 36.582031 C 119.886719 36.558594 119.886719 36.539062 119.886719 36.515625 C 119.886719 36.441406 119.886719 36.371094 119.886719 36.296875 C 119.886719 36.246094 119.886719 36.191406 119.886719 36.140625 C 119.886719 35.996094 119.886719 35.851562 119.886719 35.707031 C 119.886719 35.550781 119.886719 35.394531 119.886719 35.238281 C 119.886719 34.96875 119.886719 34.699219 119.886719 34.429688 C 119.886719 34.039062 119.886719 33.644531 119.886719 33.253906 C 119.886719 32.617188 119.882812 31.984375 119.882812 31.347656 C 119.882812 31.308594 119.882812 31.269531 119.882812 31.230469 C 119.882812 30.691406 119.882812 30.152344 119.882812 29.613281 C 119.882812 29.554688 119.882812 29.554688 119.882812 29.5 C 119.882812 29.460938 119.882812 29.421875 119.882812 29.382812 C 119.882812 28.75 119.882812 28.117188 119.882812 27.484375 C 119.878906 27.09375 119.878906 26.703125 119.882812 26.316406 C 119.882812 26.046875 119.882812 25.78125 119.878906 25.511719 C 119.878906 25.359375 119.878906 25.203125 119.878906 25.050781 C 119.882812 23.878906 119.820312 22.6875 119.03125 21.75 C 118.988281 21.695312 118.988281 21.695312 118.988281 21.628906 C 118.96875 21.628906 118.945312 21.628906 118.921875 21.628906 C 118.921875 21.605469 118.921875 21.585938 118.921875 21.5625 C 118.898438 21.5625 118.878906 21.5625 118.855469 21.5625 C 118.855469 21.539062 118.855469 21.515625 118.855469 21.496094 C 118.808594 21.484375 118.765625 21.472656 118.71875 21.460938 C 118.71875 21.4375 118.71875 21.417969 118.71875 21.394531 C 118.695312 21.382812 118.671875 21.375 118.648438 21.367188 C 118.542969 21.320312 118.441406 21.265625 118.339844 21.210938 C 117.660156 20.859375 116.828125 20.835938 116.105469 21.0625 C 115.382812 21.328125 114.867188 21.785156 114.539062 22.484375 C 114.152344 23.382812 114.011719 24.332031 114.011719 25.308594 C 114.011719 25.359375 114.011719 25.40625 114.011719 25.457031 C 114.011719 25.566406 114.011719 25.671875 114.011719 25.78125 C 114.011719 25.953125 114.011719 26.128906 114.011719 26.304688 C 114.011719 26.554688 114.011719 26.808594 114.011719 27.0625 C 114.011719 27.464844 114.011719 27.863281 114.011719 28.265625 C 114.011719 28.402344 114.007812 28.539062 114.007812 28.675781 C 114.007812 28.710938 114.007812 28.746094 114.007812 28.78125 C 114.007812 29.167969 114.007812 29.558594 114.007812 29.949219 C 114.007812 29.984375 114.007812 30.019531 114.007812 30.054688 C 114.007812 30.632812 114.007812 31.210938 114.007812 31.789062 C 114.007812 32.382812 114.003906 32.972656 114.003906 33.566406 C 114.003906 33.933594 114.003906 34.296875 114.003906 34.664062 C 114.003906 34.914062 114.003906 35.164062 114.003906 35.414062 C 114 35.558594 114 35.703125 114 35.847656 C 114.003906 35.980469 114 36.113281 114 36.246094 C 114 36.292969 114 36.339844 114 36.390625 C 114.003906 36.65625 113.996094 36.847656 113.847656 37.074219 C 113.78125 37.144531 113.78125 37.144531 113.710938 37.191406 C 113.691406 37.207031 113.667969 37.222656 113.644531 37.238281 C 113.53125 37.308594 113.4375 37.316406 113.304688 37.316406 C 113.269531 37.316406 113.234375 37.316406 113.195312 37.316406 C 113.136719 37.316406 113.136719 37.316406 113.078125 37.316406 C 113.035156 37.316406 112.992188 37.316406 112.953125 37.316406 C 112.835938 37.316406 112.722656 37.316406 112.609375 37.316406 C 112.539062 37.316406 112.464844 37.316406 112.394531 37.316406 C 112.171875 37.320312 111.949219 37.320312 111.726562 37.320312 C 111.46875 37.320312 111.210938 37.320312 110.953125 37.320312 C 110.753906 37.320312 110.554688 37.320312 110.355469 37.320312 C 110.234375 37.320312 110.117188 37.320312 109.996094 37.324219 C 109.863281 37.324219 109.730469 37.324219 109.597656 37.324219 C 109.539062 37.324219 109.539062 37.324219 109.480469 37.324219 C 109.199219 37.324219 108.984375 37.285156 108.777344 37.074219 C 108.613281 36.789062 108.636719 36.441406 108.636719 36.117188 C 108.636719 36.085938 108.636719 36.050781 108.636719 36.019531 C 108.636719 35.910156 108.636719 35.796875 108.636719 35.6875 C 108.636719 35.609375 108.636719 35.527344 108.636719 35.449219 C 108.636719 35.25 108.636719 35.054688 108.636719 34.859375 C 108.636719 34.621094 108.636719 34.386719 108.636719 34.152344 C 108.636719 33.664062 108.636719 33.175781 108.636719 32.6875 C 108.636719 32.308594 108.636719 31.933594 108.636719 31.554688 C 108.636719 31.449219 108.636719 31.339844 108.636719 31.230469 C 108.636719 31.203125 108.636719 31.175781 108.636719 31.148438 C 108.636719 30.390625 108.636719 29.632812 108.636719 28.875 C 108.636719 28.84375 108.636719 28.816406 108.636719 28.785156 C 108.636719 28.640625 108.636719 28.496094 108.636719 28.351562 C 108.636719 28.324219 108.636719 28.292969 108.636719 28.265625 C 108.636719 28.207031 108.636719 28.148438 108.636719 28.089844 C 108.636719 27.183594 108.636719 26.277344 108.636719 25.371094 C 108.632812 24.355469 108.632812 23.335938 108.632812 22.316406 C 108.632812 22.210938 108.632812 22.101562 108.632812 21.992188 C 108.632812 21.964844 108.632812 21.9375 108.632812 21.910156 C 108.632812 21.480469 108.632812 21.050781 108.632812 20.621094 C 108.632812 20.1875 108.632812 19.757812 108.632812 19.324219 C 108.632812 19.089844 108.632812 18.855469 108.632812 18.621094 C 108.632812 18.410156 108.632812 18.195312 108.632812 17.980469 C 108.632812 17.902344 108.632812 17.824219 108.632812 17.746094 C 108.632812 17.640625 108.632812 17.535156 108.632812 17.429688 C 108.632812 17.402344 108.632812 17.371094 108.632812 17.339844 C 108.632812 17.101562 108.664062 16.890625 108.808594 16.695312 C 109.042969 16.476562 109.214844 16.449219 109.523438 16.449219 C 109.558594 16.449219 109.59375 16.449219 109.628906 16.449219 C 109.742188 16.449219 109.859375 16.449219 109.972656 16.449219 C 110.050781 16.445312 110.132812 16.445312 110.210938 16.445312 C 110.378906 16.445312 110.546875 16.445312 110.714844 16.445312 C 110.925781 16.445312 111.140625 16.445312 111.355469 16.445312 C 111.519531 16.445312 111.683594 16.441406 111.847656 16.441406 C 111.925781 16.441406 112.007812 16.441406 112.085938 16.441406 C 112.195312 16.441406 112.304688 16.441406 112.417969 16.441406 C 112.449219 16.441406 112.480469 16.441406 112.515625 16.441406 C 112.8125 16.445312 113.035156 16.550781 113.246094 16.761719 C 113.332031 16.941406 113.375 17.117188 113.410156 17.3125 C 113.414062 17.34375 113.417969 17.375 113.425781 17.40625 C 113.445312 17.507812 113.460938 17.609375 113.480469 17.710938 C 113.507812 17.859375 113.535156 18.011719 113.5625 18.160156 C 113.570312 18.199219 113.574219 18.238281 113.582031 18.277344 C 113.636719 18.570312 113.699219 18.863281 113.765625 19.152344 C 113.773438 19.199219 113.773438 19.199219 113.785156 19.246094 C 113.789062 19.269531 113.796875 19.296875 113.804688 19.324219 C 113.816406 19.40625 113.816406 19.484375 113.816406 19.566406 C 113.871094 19.566406 113.925781 19.566406 113.984375 19.566406 C 113.996094 19.527344 114.003906 19.488281 114.015625 19.449219 C 114.101562 19.195312 114.230469 18.960938 114.351562 18.722656 C 114.375 18.722656 114.398438 18.722656 114.421875 18.722656 C 114.425781 18.695312 114.433594 18.667969 114.441406 18.636719 C 114.5 18.492188 114.578125 18.378906 114.667969 18.25 C 114.6875 18.226562 114.703125 18.199219 114.722656 18.175781 C 115.121094 17.621094 115.574219 17.179688 116.132812 16.796875 C 116.15625 16.78125 116.179688 16.761719 116.203125 16.746094 C 116.410156 16.605469 116.648438 16.515625 116.878906 16.417969 C 116.929688 16.394531 116.980469 16.375 117.03125 16.351562 C 117.609375 16.101562 118.257812 16.007812 118.882812 15.980469 Z M 118.882812 15.980469 "/><path style=" stroke:none;fill-rule:nonzero;fill:rgb(9.411765%,10.980392%,15.294118%);fill-opacity:1;" d="M 96.785156 15.984375 C 99.0625 15.921875 101.136719 16.8125 102.777344 18.371094 C 103.050781 18.628906 103.304688 18.898438 103.535156 19.195312 C 103.554688 19.21875 103.570312 19.242188 103.589844 19.265625 C 103.648438 19.34375 103.710938 19.417969 103.769531 19.496094 C 103.789062 19.519531 103.808594 19.546875 103.828125 19.570312 C 103.917969 19.6875 103.996094 19.792969 104.039062 19.941406 C 104.0625 19.941406 104.085938 19.941406 104.105469 19.941406 C 104.117188 19.960938 104.128906 19.984375 104.140625 20.003906 C 104.238281 20.179688 104.335938 20.355469 104.433594 20.53125 C 104.707031 21.007812 104.953125 21.492188 105.15625 22 C 105.179688 22.058594 105.203125 22.117188 105.226562 22.171875 C 105.277344 22.300781 105.324219 22.429688 105.363281 22.5625 C 105.371094 22.589844 105.378906 22.621094 105.390625 22.652344 C 105.398438 22.683594 105.40625 22.714844 105.417969 22.746094 C 105.4375 22.808594 105.453125 22.867188 105.472656 22.929688 C 105.746094 23.859375 105.945312 24.785156 106.023438 25.753906 C 106.023438 25.789062 106.023438 25.789062 106.027344 25.824219 C 106.265625 28.785156 105.550781 32.007812 103.703125 34.371094 C 103.671875 34.414062 103.671875 34.414062 103.636719 34.460938 C 103.5 34.632812 103.359375 34.800781 103.210938 34.960938 C 103.160156 35.019531 103.109375 35.074219 103.0625 35.128906 C 102.011719 36.335938 100.527344 37.144531 99 37.546875 C 98.976562 37.554688 98.953125 37.5625 98.925781 37.566406 C 96.914062 38.105469 94.699219 37.699219 92.902344 36.6875 C 92.824219 36.644531 92.746094 36.597656 92.671875 36.546875 C 92.648438 36.535156 92.625 36.519531 92.601562 36.503906 C 92.550781 36.472656 92.5 36.4375 92.449219 36.398438 C 92.449219 36.375 92.449219 36.355469 92.449219 36.332031 C 92.425781 36.320312 92.398438 36.3125 92.375 36.304688 C 92.285156 36.265625 92.222656 36.222656 92.148438 36.15625 C 92.109375 36.128906 92.109375 36.128906 92.074219 36.097656 C 92.050781 36.074219 92.023438 36.054688 92 36.03125 C 91.800781 35.863281 91.800781 35.863281 91.59375 35.710938 C 91.566406 35.691406 91.539062 35.675781 91.507812 35.65625 C 91.507812 35.632812 91.507812 35.609375 91.507812 35.585938 C 91.488281 35.585938 91.464844 35.585938 91.441406 35.585938 C 91.398438 35.542969 91.398438 35.542969 91.34375 35.476562 C 91.242188 35.355469 91.136719 35.246094 91.023438 35.136719 C 90.878906 34.988281 90.746094 34.835938 90.621094 34.671875 C 90.574219 34.605469 90.574219 34.605469 90.5 34.574219 C 90.46875 34.515625 90.433594 34.460938 90.402344 34.40625 C 90.378906 34.378906 90.359375 34.351562 90.335938 34.324219 C 90.246094 34.210938 90.171875 34.089844 90.097656 33.964844 C 90.046875 33.886719 89.992188 33.8125 89.933594 33.738281 C 89.820312 33.585938 89.726562 33.425781 89.632812 33.257812 C 89.613281 33.226562 89.597656 33.195312 89.578125 33.164062 C 89.425781 32.882812 89.285156 32.601562 89.15625 32.308594 C 89.144531 32.28125 89.132812 32.25 89.117188 32.21875 C 88.246094 30.207031 88.246094 30.207031 88.25 29.234375 C 88.234375 29.183594 88.234375 29.183594 88.21875 29.132812 C 88.175781 28.984375 88.167969 28.832031 88.160156 28.675781 C 88.152344 28.566406 88.144531 28.457031 88.132812 28.347656 C 88.085938 27.855469 88.070312 27.367188 88.074219 26.871094 C 88.074219 26.835938 88.074219 26.800781 88.074219 26.761719 C 88.074219 26.25 88.085938 25.738281 88.140625 25.230469 C 88.152344 25.105469 88.164062 24.980469 88.175781 24.855469 C 88.183594 24.777344 88.199219 24.703125 88.21875 24.625 C 88.246094 24.519531 88.253906 24.441406 88.25 24.332031 C 88.261719 24.289062 88.273438 24.242188 88.285156 24.199219 C 88.300781 24.128906 88.3125 24.0625 88.328125 23.996094 C 88.523438 23.105469 88.777344 22.230469 89.195312 21.417969 C 89.242188 21.328125 89.285156 21.234375 89.328125 21.144531 C 89.671875 20.378906 90.121094 19.664062 90.667969 19.027344 C 90.695312 18.996094 90.726562 18.960938 90.753906 18.929688 C 90.90625 18.753906 90.90625 18.753906 90.972656 18.6875 C 90.992188 18.6875 91.015625 18.6875 91.039062 18.6875 C 91.046875 18.667969 91.054688 18.648438 91.066406 18.628906 C 91.140625 18.492188 91.257812 18.390625 91.367188 18.28125 C 91.40625 18.242188 91.40625 18.242188 91.445312 18.203125 C 91.753906 17.898438 92.085938 17.636719 92.449219 17.40625 C 92.488281 17.382812 92.523438 17.355469 92.5625 17.332031 C 93.046875 17.015625 93.566406 16.707031 94.121094 16.527344 C 94.214844 16.5 94.300781 16.464844 94.386719 16.425781 C 94.566406 16.355469 94.75 16.300781 94.9375 16.257812 C 94.972656 16.246094 95.007812 16.238281 95.042969 16.230469 C 95.617188 16.09375 96.195312 16 96.785156 15.984375 Z M 95.203125 20.988281 C 95.183594 21.007812 95.160156 21.027344 95.136719 21.050781 C 94.457031 21.6875 94.078125 22.691406 93.894531 23.589844 C 93.886719 23.621094 93.882812 23.652344 93.875 23.6875 C 93.699219 24.53125 93.589844 25.382812 93.585938 26.246094 C 93.585938 26.289062 93.585938 26.335938 93.585938 26.382812 C 93.585938 26.53125 93.582031 26.679688 93.582031 26.824219 C 93.582031 26.851562 93.582031 26.875 93.582031 26.902344 C 93.582031 27.933594 93.640625 28.925781 93.839844 29.945312 C 93.859375 30.042969 93.878906 30.144531 93.894531 30.242188 C 93.984375 30.726562 94.175781 31.195312 94.386719 31.640625 C 94.398438 31.664062 94.410156 31.691406 94.421875 31.71875 C 94.542969 31.972656 94.542969 31.972656 94.699219 32.207031 C 94.722656 32.207031 94.746094 32.207031 94.769531 32.207031 C 94.777344 32.253906 94.789062 32.296875 94.800781 32.34375 C 94.824219 32.34375 94.847656 32.34375 94.867188 32.34375 C 94.875 32.371094 94.875 32.371094 94.878906 32.402344 C 94.976562 32.726562 95.386719 32.976562 95.664062 33.128906 C 96.386719 33.5 97.171875 33.5625 97.941406 33.316406 C 98.308594 33.191406 98.609375 33.003906 98.898438 32.75 C 98.921875 32.730469 98.941406 32.714844 98.960938 32.695312 C 99.644531 32.058594 99.984375 31.0625 100.210938 30.179688 C 100.214844 30.15625 100.222656 30.128906 100.230469 30.105469 C 100.316406 29.769531 100.371094 29.425781 100.421875 29.082031 C 100.425781 29.042969 100.433594 29.003906 100.4375 28.964844 C 100.46875 28.753906 100.484375 28.550781 100.476562 28.335938 C 100.480469 28.246094 100.496094 28.171875 100.511719 28.085938 C 100.515625 28.019531 100.515625 27.957031 100.511719 27.890625 C 100.507812 27.71875 100.507812 27.71875 100.546875 27.644531 C 100.550781 27.597656 100.550781 27.546875 100.550781 27.5 C 100.550781 27.453125 100.550781 27.453125 100.550781 27.40625 C 100.550781 27.375 100.550781 27.339844 100.550781 27.308594 C 100.550781 27.273438 100.550781 27.238281 100.550781 27.203125 C 100.550781 27.132812 100.550781 27.0625 100.550781 26.988281 C 100.550781 26.878906 100.550781 26.769531 100.550781 26.660156 C 100.550781 26.589844 100.550781 26.519531 100.550781 26.453125 C 100.550781 26.402344 100.550781 26.402344 100.550781 26.351562 C 100.550781 26.183594 100.539062 26.023438 100.511719 25.855469 C 100.511719 25.800781 100.511719 25.75 100.511719 25.695312 C 100.515625 25.621094 100.515625 25.558594 100.496094 25.488281 C 100.472656 25.386719 100.472656 25.285156 100.46875 25.179688 C 100.414062 23.953125 100.050781 22.464844 99.304688 21.460938 C 99.28125 21.460938 99.257812 21.460938 99.234375 21.460938 C 99.222656 21.429688 99.222656 21.429688 99.207031 21.398438 C 99.167969 21.324219 99.128906 21.277344 99.070312 21.214844 C 99.050781 21.195312 99.03125 21.175781 99.007812 21.15625 C 98.988281 21.136719 98.96875 21.113281 98.945312 21.09375 C 98.925781 21.070312 98.902344 21.050781 98.882812 21.027344 C 98.328125 20.484375 97.710938 20.304688 96.949219 20.308594 C 96.273438 20.316406 95.71875 20.527344 95.203125 20.988281 Z M 95.203125 20.988281 "/><path style=" stroke:none;fill-rule:nonzero;fill:rgb(9.411765%,10.980392%,15.294118%);fill-opacity:1;" d="M 72.988281 16.453125 C 73.011719 16.453125 73.035156 16.453125 73.054688 16.453125 C 73.132812 16.453125 73.207031 16.453125 73.285156 16.453125 C 73.339844 16.453125 73.394531 16.453125 73.449219 16.453125 C 73.601562 16.453125 73.753906 16.453125 73.902344 16.453125 C 74.066406 16.453125 74.230469 16.453125 74.390625 16.453125 C 74.785156 16.453125 75.179688 16.449219 75.574219 16.449219 C 75.757812 16.449219 75.945312 16.449219 76.128906 16.449219 C 76.746094 16.449219 77.363281 16.449219 77.976562 16.449219 C 78.136719 16.449219 78.296875 16.449219 78.457031 16.449219 C 78.515625 16.449219 78.515625 16.449219 78.578125 16.449219 C 79.222656 16.449219 79.867188 16.449219 80.511719 16.445312 C 81.171875 16.445312 81.832031 16.445312 82.492188 16.445312 C 82.863281 16.445312 83.234375 16.445312 83.605469 16.445312 C 83.921875 16.441406 84.238281 16.441406 84.554688 16.441406 C 84.714844 16.441406 84.878906 16.441406 85.039062 16.441406 C 85.1875 16.441406 85.332031 16.441406 85.480469 16.441406 C 85.535156 16.441406 85.589844 16.441406 85.640625 16.441406 C 85.964844 16.441406 86.199219 16.449219 86.453125 16.664062 C 86.503906 16.730469 86.503906 16.730469 86.503906 16.796875 C 86.527344 16.796875 86.546875 16.796875 86.570312 16.796875 C 86.644531 16.976562 86.648438 17.132812 86.648438 17.324219 C 86.648438 17.371094 86.648438 17.371094 86.648438 17.421875 C 86.648438 17.527344 86.648438 17.632812 86.648438 17.738281 C 86.648438 17.8125 86.648438 17.882812 86.648438 17.957031 C 86.648438 18.113281 86.648438 18.265625 86.648438 18.421875 C 86.648438 18.621094 86.648438 18.816406 86.648438 19.015625 C 86.652344 19.167969 86.652344 19.320312 86.652344 19.472656 C 86.652344 19.542969 86.652344 19.617188 86.652344 19.6875 C 86.652344 20.324219 86.597656 20.828125 86.179688 21.332031 C 86.082031 21.449219 85.992188 21.570312 85.902344 21.695312 C 85.886719 21.71875 85.867188 21.738281 85.851562 21.761719 C 85.785156 21.851562 85.734375 21.929688 85.699219 22.035156 C 85.675781 22.035156 85.652344 22.035156 85.628906 22.035156 C 85.628906 22.070312 85.628906 22.101562 85.628906 22.136719 C 85.582031 22.1875 85.582031 22.1875 85.53125 22.238281 C 85.519531 22.261719 85.507812 22.28125 85.496094 22.304688 C 85.472656 22.304688 85.453125 22.304688 85.429688 22.304688 C 85.421875 22.328125 85.414062 22.355469 85.402344 22.378906 C 85.355469 22.488281 85.292969 22.566406 85.21875 22.664062 C 85.070312 22.851562 84.933594 23.042969 84.800781 23.238281 C 84.640625 23.46875 84.480469 23.695312 84.316406 23.917969 C 84.167969 24.117188 84.023438 24.316406 83.882812 24.519531 C 83.738281 24.726562 83.589844 24.933594 83.445312 25.140625 C 83.425781 25.167969 83.40625 25.191406 83.390625 25.21875 C 83.371094 25.242188 83.355469 25.265625 83.335938 25.292969 C 83.320312 25.3125 83.304688 25.335938 83.289062 25.355469 C 83.246094 25.414062 83.246094 25.414062 83.191406 25.46875 C 83.136719 25.519531 83.136719 25.519531 83.109375 25.617188 C 83.054688 25.675781 83 25.730469 82.941406 25.785156 C 82.886719 25.859375 82.835938 25.933594 82.785156 26.011719 C 82.769531 26.03125 82.757812 26.050781 82.742188 26.070312 C 82.683594 26.15625 82.640625 26.226562 82.605469 26.328125 C 82.574219 26.363281 82.539062 26.394531 82.507812 26.429688 C 82.496094 26.449219 82.484375 26.472656 82.472656 26.496094 C 82.449219 26.496094 82.429688 26.496094 82.40625 26.496094 C 82.398438 26.519531 82.390625 26.542969 82.382812 26.5625 C 82.320312 26.703125 82.230469 26.8125 82.140625 26.929688 C 81.992188 27.117188 81.851562 27.308594 81.71875 27.507812 C 81.558594 27.742188 81.390625 27.972656 81.222656 28.203125 C 81.203125 28.230469 81.183594 28.253906 81.164062 28.28125 C 81.148438 28.304688 81.128906 28.328125 81.109375 28.355469 C 81.066406 28.417969 81.023438 28.480469 80.984375 28.542969 C 80.964844 28.570312 80.945312 28.597656 80.925781 28.625 C 80.90625 28.625 80.882812 28.625 80.859375 28.625 C 80.820312 28.703125 80.789062 28.777344 80.757812 28.863281 C 80.738281 28.863281 80.714844 28.863281 80.691406 28.863281 C 80.691406 28.894531 80.691406 28.929688 80.691406 28.964844 C 80.671875 28.972656 80.648438 28.984375 80.625 28.996094 C 80.613281 29.03125 80.601562 29.0625 80.589844 29.097656 C 80.570312 29.097656 80.546875 29.097656 80.523438 29.097656 C 80.519531 29.117188 80.519531 29.136719 80.515625 29.152344 C 80.480469 29.261719 80.425781 29.335938 80.359375 29.429688 C 80.335938 29.460938 80.3125 29.496094 80.285156 29.527344 C 80.265625 29.554688 80.242188 29.578125 80.222656 29.605469 C 80.199219 29.605469 80.175781 29.605469 80.15625 29.605469 C 80.148438 29.628906 80.140625 29.652344 80.128906 29.675781 C 80.078125 29.792969 80.011719 29.878906 79.933594 29.976562 C 79.792969 30.15625 79.660156 30.34375 79.53125 30.53125 C 79.433594 30.675781 79.332031 30.816406 79.234375 30.957031 C 79.046875 31.214844 78.859375 31.472656 78.675781 31.734375 C 78.71875 31.722656 78.757812 31.714844 78.800781 31.703125 C 78.996094 31.660156 79.1875 31.644531 79.382812 31.628906 C 79.433594 31.625 79.433594 31.625 79.488281 31.621094 C 79.972656 31.582031 80.460938 31.597656 80.945312 31.625 C 80.984375 31.628906 80.984375 31.628906 81.027344 31.628906 C 81.84375 31.675781 82.648438 31.792969 83.449219 31.953125 C 83.574219 31.976562 83.703125 32 83.828125 32.019531 C 84.621094 32.183594 85.429688 32.488281 86.167969 32.816406 C 86.195312 32.828125 86.222656 32.839844 86.253906 32.851562 C 86.566406 32.996094 86.816406 33.117188 86.960938 33.445312 C 87.019531 33.605469 87.023438 33.753906 87.019531 33.925781 C 87.019531 33.972656 87.019531 33.972656 87.019531 34.019531 C 87.023438 34.125 87.023438 34.230469 87.019531 34.335938 C 87.019531 34.410156 87.019531 34.484375 87.023438 34.554688 C 87.023438 34.710938 87.019531 34.863281 87.019531 35.015625 C 87.019531 35.210938 87.019531 35.410156 87.019531 35.605469 C 87.023438 35.757812 87.023438 35.90625 87.019531 36.058594 C 87.019531 36.128906 87.019531 36.203125 87.023438 36.277344 C 87.023438 36.375 87.019531 36.476562 87.019531 36.578125 C 87.019531 36.609375 87.019531 36.636719 87.019531 36.667969 C 87.019531 36.886719 86.984375 37.050781 86.839844 37.222656 C 86.710938 37.328125 86.574219 37.324219 86.417969 37.324219 C 86.175781 37.296875 85.953125 37.199219 85.730469 37.113281 C 85.652344 37.085938 85.578125 37.058594 85.503906 37.03125 C 85.453125 37.011719 85.40625 36.996094 85.359375 36.976562 C 85.183594 36.914062 85.003906 36.855469 84.824219 36.804688 C 84.785156 36.792969 84.742188 36.78125 84.703125 36.765625 C 84.550781 36.722656 84.402344 36.679688 84.253906 36.636719 C 84.21875 36.625 84.183594 36.613281 84.148438 36.605469 C 83.148438 36.316406 82.132812 36.117188 81.09375 36.027344 C 81.0625 36.023438 81.027344 36.019531 80.996094 36.019531 C 80.746094 35.996094 80.496094 35.988281 80.246094 35.984375 C 80.207031 35.984375 80.167969 35.984375 80.128906 35.984375 C 80.007812 35.984375 79.886719 35.984375 79.765625 35.984375 C 79.722656 35.984375 79.679688 35.984375 79.636719 35.984375 C 78.953125 35.984375 78.28125 36.007812 77.601562 36.09375 C 77.570312 36.097656 77.570312 36.097656 77.535156 36.101562 C 76.40625 36.246094 75.300781 36.523438 74.207031 36.839844 C 74.175781 36.847656 74.140625 36.855469 74.105469 36.867188 C 73.851562 36.941406 73.601562 37.019531 73.351562 37.105469 C 73.304688 37.121094 73.304688 37.121094 73.257812 37.136719 C 73.195312 37.15625 73.136719 37.179688 73.078125 37.199219 C 72.8125 37.292969 72.523438 37.367188 72.261719 37.242188 C 72.136719 37.128906 72.03125 37.015625 72.019531 36.835938 C 72.019531 36.8125 72.019531 36.785156 72.019531 36.757812 C 72.019531 36.730469 72.019531 36.699219 72.019531 36.667969 C 72.019531 36.636719 72.019531 36.601562 72.019531 36.570312 C 72.019531 36.535156 72.019531 36.5 72.019531 36.464844 C 72.019531 36.347656 72.015625 36.234375 72.015625 36.117188 C 72.015625 36.078125 72.015625 36.039062 72.015625 36 C 72.015625 35.792969 72.015625 35.582031 72.015625 35.375 C 72.015625 35.160156 72.011719 34.945312 72.011719 34.730469 C 72.011719 34.566406 72.011719 34.402344 72.011719 34.234375 C 72.011719 34.15625 72.011719 34.078125 72.007812 34 C 72.003906 33.117188 72.277344 32.664062 72.792969 31.960938 C 72.832031 31.902344 72.832031 31.902344 72.863281 31.835938 C 72.886719 31.835938 72.910156 31.835938 72.933594 31.835938 C 72.9375 31.816406 72.9375 31.796875 72.941406 31.777344 C 72.96875 31.691406 73.003906 31.636719 73.054688 31.566406 C 73.074219 31.542969 73.089844 31.515625 73.109375 31.488281 C 73.128906 31.464844 73.148438 31.4375 73.167969 31.410156 C 73.1875 31.382812 73.210938 31.355469 73.230469 31.324219 C 73.328125 31.191406 73.429688 31.054688 73.535156 30.925781 C 73.703125 30.71875 73.847656 30.5 73.996094 30.28125 C 74.097656 30.125 74.203125 29.972656 74.3125 29.820312 C 74.328125 29.796875 74.34375 29.773438 74.363281 29.75 C 74.394531 29.703125 74.429688 29.65625 74.460938 29.609375 C 74.546875 29.488281 74.628906 29.371094 74.710938 29.25 C 74.8125 29.105469 74.917969 28.960938 75.019531 28.816406 C 75.054688 28.765625 75.085938 28.71875 75.121094 28.667969 C 75.148438 28.632812 75.148438 28.632812 75.171875 28.597656 C 75.25 28.484375 75.328125 28.371094 75.40625 28.261719 C 75.425781 28.230469 75.425781 28.230469 75.445312 28.199219 C 75.484375 28.144531 75.519531 28.09375 75.554688 28.039062 C 75.617188 27.953125 75.679688 27.886719 75.753906 27.8125 C 75.796875 27.757812 75.835938 27.703125 75.878906 27.644531 C 75.90625 27.601562 75.90625 27.601562 75.9375 27.554688 C 75.992188 27.476562 75.992188 27.476562 76.023438 27.375 C 76.042969 27.375 76.066406 27.375 76.089844 27.375 C 76.089844 27.339844 76.089844 27.308594 76.089844 27.273438 C 76.113281 27.261719 76.132812 27.25 76.15625 27.238281 C 76.167969 27.207031 76.179688 27.171875 76.191406 27.136719 C 76.210938 27.136719 76.234375 27.136719 76.257812 27.136719 C 76.257812 27.105469 76.257812 27.070312 76.257812 27.035156 C 76.300781 26.992188 76.347656 26.945312 76.390625 26.902344 C 76.453125 26.820312 76.511719 26.738281 76.570312 26.65625 C 76.585938 26.628906 76.601562 26.605469 76.621094 26.578125 C 76.679688 26.496094 76.738281 26.410156 76.796875 26.328125 C 76.828125 26.28125 76.828125 26.28125 76.859375 26.234375 C 76.882812 26.203125 76.902344 26.171875 76.925781 26.136719 C 76.972656 26.070312 77.015625 26.007812 77.0625 25.941406 C 77.085938 25.90625 77.105469 25.875 77.128906 25.839844 C 77.308594 25.582031 77.492188 25.328125 77.675781 25.070312 C 77.871094 24.8125 77.871094 24.8125 78.039062 24.535156 C 78.058594 24.535156 78.082031 24.535156 78.105469 24.535156 C 78.109375 24.515625 78.113281 24.496094 78.117188 24.476562 C 78.15625 24.335938 78.253906 24.222656 78.339844 24.105469 C 78.355469 24.078125 78.375 24.050781 78.394531 24.023438 C 78.414062 24 78.429688 23.972656 78.449219 23.949219 C 78.464844 23.925781 78.480469 23.902344 78.5 23.878906 C 78.519531 23.851562 78.519531 23.851562 78.542969 23.828125 C 78.5625 23.828125 78.585938 23.828125 78.609375 23.828125 C 78.617188 23.808594 78.628906 23.789062 78.636719 23.769531 C 78.679688 23.6875 78.726562 23.613281 78.777344 23.535156 C 78.796875 23.507812 78.820312 23.476562 78.839844 23.445312 C 78.871094 23.398438 78.871094 23.398438 78.90625 23.347656 C 78.929688 23.316406 78.949219 23.28125 78.972656 23.25 C 79.128906 23.019531 79.292969 22.792969 79.453125 22.566406 C 79.648438 22.292969 79.839844 22.019531 80.03125 21.746094 C 80.136719 21.589844 80.246094 21.4375 80.355469 21.285156 C 80.464844 21.125 80.574219 20.964844 80.683594 20.804688 C 80.695312 20.785156 80.710938 20.769531 80.726562 20.75 C 80.746094 20.75 80.769531 20.75 80.792969 20.75 C 80.792969 20.730469 80.792969 20.707031 80.792969 20.683594 C 80.75 20.683594 80.710938 20.683594 80.667969 20.683594 C 79.675781 20.6875 78.6875 20.691406 77.699219 20.691406 C 77.578125 20.691406 77.457031 20.691406 77.335938 20.691406 C 77.308594 20.691406 77.285156 20.691406 77.261719 20.691406 C 76.867188 20.695312 76.476562 20.695312 76.082031 20.695312 C 75.679688 20.699219 75.277344 20.699219 74.875 20.699219 C 74.648438 20.699219 74.421875 20.699219 74.199219 20.703125 C 73.984375 20.703125 73.773438 20.703125 73.558594 20.703125 C 73.480469 20.703125 73.402344 20.703125 73.324219 20.703125 C 73.21875 20.703125 73.109375 20.703125 73.003906 20.703125 C 72.957031 20.703125 72.957031 20.703125 72.910156 20.707031 C 72.667969 20.703125 72.503906 20.625 72.332031 20.449219 C 72.222656 20.269531 72.203125 20.121094 72.207031 19.914062 C 72.207031 19.882812 72.207031 19.847656 72.207031 19.816406 C 72.203125 19.710938 72.207031 19.605469 72.207031 19.5 C 72.207031 19.429688 72.207031 19.355469 72.207031 19.28125 C 72.207031 19.128906 72.207031 18.976562 72.207031 18.820312 C 72.210938 18.625 72.210938 18.429688 72.210938 18.234375 C 72.210938 18.082031 72.210938 17.929688 72.210938 17.777344 C 72.210938 17.707031 72.210938 17.632812 72.210938 17.5625 C 72.210938 17.460938 72.210938 17.359375 72.210938 17.257812 C 72.210938 17.230469 72.210938 17.199219 72.210938 17.167969 C 72.214844 16.984375 72.242188 16.859375 72.328125 16.695312 C 72.398438 16.628906 72.398438 16.628906 72.476562 16.582031 C 72.503906 16.566406 72.527344 16.546875 72.554688 16.53125 C 72.699219 16.457031 72.828125 16.453125 72.988281 16.453125 Z M 72.988281 16.453125 "/><path style=" stroke:none;fill-rule:nonzero;fill:rgb(100%,38.431373%,0.784314%);fill-opacity:1;" d="M 79.828125 38.824219 C 79.863281 38.824219 79.898438 38.824219 79.933594 38.824219 C 80.046875 38.824219 80.160156 38.824219 80.273438 38.824219 C 80.3125 38.824219 80.347656 38.824219 80.390625 38.824219 C 81.222656 38.824219 82.003906 38.90625 82.820312 39.082031 C 82.894531 39.097656 82.96875 39.113281 83.042969 39.125 C 83.664062 39.234375 84.273438 39.429688 84.824219 39.746094 C 84.859375 39.765625 84.898438 39.785156 84.933594 39.804688 C 85.382812 40.050781 85.730469 40.390625 85.886719 40.890625 C 85.902344 40.957031 85.921875 41.027344 85.9375 41.09375 C 85.941406 41.117188 85.949219 41.140625 85.953125 41.164062 C 86.039062 41.503906 86.042969 41.84375 86.042969 42.191406 C 86.042969 42.21875 86.042969 42.246094 86.042969 42.273438 C 86.046875 42.8125 85.988281 43.335938 85.910156 43.867188 C 85.898438 43.96875 85.898438 43.96875 85.898438 44.058594 C 85.898438 44.171875 85.863281 44.269531 85.832031 44.375 C 85.820312 44.445312 85.804688 44.515625 85.792969 44.582031 C 85.679688 45.191406 85.496094 45.792969 85.257812 46.359375 C 85.222656 46.445312 85.191406 46.527344 85.15625 46.613281 C 85.132812 46.675781 85.109375 46.734375 85.085938 46.796875 C 85.074219 46.824219 85.066406 46.851562 85.054688 46.878906 C 84.996094 47.027344 84.929688 47.175781 84.855469 47.316406 C 84.824219 47.378906 84.796875 47.441406 84.765625 47.503906 C 84.320312 48.433594 83.730469 49.308594 83.027344 50.0625 C 82.957031 50.136719 82.894531 50.210938 82.828125 50.285156 C 82.71875 50.417969 82.597656 50.539062 82.480469 50.660156 C 82.460938 50.679688 82.441406 50.699219 82.421875 50.722656 C 82.371094 50.769531 82.320312 50.816406 82.269531 50.863281 C 82.25 50.863281 82.226562 50.863281 82.203125 50.863281 C 82.203125 50.886719 82.203125 50.90625 82.203125 50.929688 C 82.15625 50.980469 82.15625 50.980469 82.089844 51.035156 C 81.984375 51.125 81.882812 51.214844 81.78125 51.3125 C 80.507812 52.464844 80.507812 52.464844 79.753906 52.449219 C 79.492188 52.414062 79.316406 52.3125 79.152344 52.105469 C 78.996094 51.863281 78.949219 51.640625 79 51.359375 C 79.15625 50.773438 79.5 50.230469 79.824219 49.722656 C 79.972656 49.488281 80.101562 49.238281 80.234375 48.992188 C 80.316406 48.835938 80.398438 48.683594 80.488281 48.535156 C 80.609375 48.335938 80.710938 48.128906 80.808594 47.917969 C 80.820312 47.898438 80.828125 47.878906 80.839844 47.859375 C 80.96875 47.589844 81.085938 47.320312 81.183594 47.035156 C 81.226562 46.917969 81.273438 46.804688 81.320312 46.691406 C 81.683594 45.851562 82.019531 44.964844 82.09375 44.042969 C 82.101562 43.933594 82.101562 43.933594 82.136719 43.902344 C 82.152344 43.6875 82.140625 43.496094 82.070312 43.292969 C 82.054688 43.242188 82.054688 43.242188 82.039062 43.1875 C 81.953125 42.96875 81.804688 42.855469 81.597656 42.753906 C 80.765625 42.398438 79.847656 42.375 78.957031 42.375 C 78.914062 42.375 78.914062 42.375 78.867188 42.375 C 77.503906 42.375 76.164062 42.554688 74.828125 42.824219 C 74.496094 42.890625 74.175781 42.941406 73.839844 42.957031 C 73.78125 42.960938 73.726562 42.96875 73.667969 42.976562 C 73.292969 43.015625 72.988281 42.960938 72.667969 42.761719 C 72.503906 42.589844 72.421875 42.363281 72.414062 42.125 C 72.421875 41.789062 72.566406 41.574219 72.800781 41.34375 C 73.398438 40.789062 74.136719 40.382812 74.875 40.050781 C 74.953125 40.011719 75.03125 39.972656 75.113281 39.929688 C 75.285156 39.84375 75.460938 39.769531 75.640625 39.699219 C 75.671875 39.6875 75.707031 39.675781 75.742188 39.660156 C 76.277344 39.453125 76.820312 39.261719 77.382812 39.152344 C 77.476562 39.132812 77.570312 39.113281 77.664062 39.09375 C 78.375 38.945312 79.097656 38.828125 79.828125 38.824219 Z M 79.828125 38.824219 "/></g></svg>